<?xml version="1.0" standalone="no"?>
<!DOCTYPE svg PUBLIC "-//W3C//DTD SVG 20010904//EN"
 "http://www.w3.org/TR/2001/REC-SVG-20010904/DTD/svg10.dtd">
<svg version="1.0" xmlns="http://www.w3.org/2000/svg"
 width="576.000000pt" height="480.000000pt" viewBox="0 0 576.000000 480.000000"
 preserveAspectRatio="xMidYMid meet">

<g transform="translate(0.000000,480.000000) scale(0.100000,-0.100000)"
fill="#000000" stroke="none">
<path d="M0 2405 l0 -2395 2880 0 2880 0 0 2395 0 2395 -2880 0 -2880 0 0
-2395z m2520 2083 c0 -7 -4 -19 -9 -26 -6 -10 -11 -10 -21 3 -12 14 -11 18 1
26 20 12 29 11 29 -3z m50 2 c0 -5 -4 -10 -10 -10 -5 0 -10 5 -10 10 0 6 5 10
10 10 6 0 10 -4 10 -10z m670 -15 c0 -8 -4 -17 -10 -20 -6 -4 -10 5 -10 20 0
15 4 24 10 20 6 -3 10 -12 10 -20z m91 -22 c31 -18 37 -38 16 -46 -17 -6 -28
1 -44 30 -22 39 -16 42 28 16z m-941 -45 c0 -17 -41 -58 -57 -58 -10 0 -11 -5
-3 -19 13 -25 2 -79 -17 -83 -12 -2 -11 -8 7 -30 26 -34 21 -43 -35 -69 -29
-14 -42 -25 -38 -35 6 -17 -10 -18 -38 -4 -29 16 -25 64 8 88 27 19 27 21 10
39 -23 26 -22 30 14 70 17 19 28 42 25 49 -3 9 2 17 12 20 9 4 35 14 57 25 48
22 55 23 55 7z m-516 -20 c11 -10 16 -21 13 -25 -4 -3 -7 -1 -7 7 0 10 -3 10
-15 0 -9 -8 -28 -10 -50 -6 -38 8 -45 20 -17 35 24 14 53 9 76 -11z m2239 -17
c-2 -6 6 -15 17 -21 14 -7 20 -21 20 -43 0 -38 -51 -189 -66 -194 -6 -2 -9 28
-6 84 6 138 3 167 -16 181 -15 11 -15 14 -2 22 17 10 57 -11 53 -29z m-1117
-21 c27 -22 54 -40 61 -40 14 0 103 -85 103 -99 0 -5 9 -28 19 -52 10 -24 21
-72 23 -107 4 -54 2 -62 -11 -56 -37 15 -53 15 -120 4 -54 -9 -80 -20 -115
-47 -44 -34 -91 -46 -105 -27 -3 5 -24 23 -46 40 -39 31 -67 39 -154 49 -25 3
-47 8 -50 10 -2 3 7 18 21 33 21 22 24 34 21 69 -4 35 -2 42 16 48 15 4 21 15
21 34 0 16 8 39 18 52 10 13 21 31 24 40 4 10 33 23 75 35 37 10 82 26 98 35
42 25 47 24 101 -21z m-1236 -56 c0 -8 -4 -12 -10 -9 -5 3 -10 13 -10 21 0 8
5 12 10 9 6 -3 10 -13 10 -21z m1800 -33 c0 -14 -37 -23 -60 -16 -34 11 -22
25 20 25 22 0 40 -4 40 -9z m-903 -67 c-3 -3 -12 -4 -19 -1 -8 3 -5 6 6 6 11
1 17 -2 13 -5z m952 -45 c50 -18 70 -69 27 -69 -37 0 -41 -18 -6 -27 41 -11
40 -26 -3 -37 -32 -8 -97 8 -97 25 0 10 34 36 58 44 31 9 19 22 -28 30 -37 6
-47 21 -25 37 14 11 37 10 74 -3z m-1312 -75 c12 -3 25 -14 28 -24 3 -9 17
-22 31 -29 15 -6 22 -16 18 -23 -5 -8 -11 -6 -20 7 -8 11 -28 18 -52 20 -53 3
-65 11 -52 36 12 21 14 22 47 13z m-1307 -54 c0 -5 -8 -10 -17 -10 -15 0 -16
2 -3 10 19 12 20 12 20 0z m3881 -37 c17 -43 9 -193 -10 -193 -13 0 -32 18
-35 31 -2 8 -13 35 -24 60 -23 50 -22 81 4 110 25 27 53 24 65 -8z m-3896 -48
c0 -47 -2 -50 -25 -50 -17 0 -24 5 -21 15 3 8 4 32 2 53 -1 35 1 38 21 35 20
-3 23 -9 23 -53z m1753 19 c70 -9 47 -24 -37 -24 -59 0 -80 4 -84 14 -9 24 2
25 121 10z m446 0 c9 -8 16 -21 16 -27 0 -8 -3 -7 -9 2 -6 9 -11 10 -15 2 -9
-14 -182 -15 -191 0 -11 17 1 21 87 29 46 4 86 8 90 9 4 0 14 -6 22 -15z m341
2 c0 -11 -54 -30 -62 -22 -3 3 0 13 7 21 14 17 55 17 55 1z m-1127 -14 c2 -7
-7 -12 -23 -12 -24 0 -26 2 -15 15 14 17 31 16 38 -3z m1302 -18 c0 -2 -9 -4
-21 -4 -11 0 -18 4 -14 10 5 8 35 3 35 -6z m-780 -44 c8 -5 12 -10 8 -10 -4 0
4 -16 17 -36 14 -20 25 -43 25 -51 0 -18 95 -63 133 -63 42 0 81 24 99 62 36
76 40 87 33 98 -5 8 0 11 16 8 65 -9 53 -216 -16 -284 -8 -9 -15 -31 -15 -50
0 -19 -4 -34 -10 -34 -5 0 -12 -11 -16 -25 -3 -14 -10 -25 -14 -25 -4 0 -13
-13 -20 -30 -7 -16 -18 -30 -24 -30 -15 0 -48 -83 -40 -103 3 -10 1 -17 -5
-17 -6 0 -11 -11 -11 -24 0 -24 -30 -44 -48 -32 -4 3 -50 1 -100 -4 l-93 -9
-64 47 c-35 26 -64 53 -64 61 -1 7 -9 28 -20 45 -10 17 -22 56 -25 87 -4 31
-15 65 -24 75 -18 20 -39 68 -52 122 -5 19 -15 41 -24 51 -14 16 -11 17 48 13
49 -3 74 1 111 17 56 25 55 25 55 8 0 -8 10 -13 23 -12 19 1 24 11 35 65 17
86 39 108 82 80z m-800 -10 c13 -8 12 -10 -3 -10 -15 0 -18 -7 -15 -32 2 -18
-1 -35 -7 -37 -12 -5 -56 69 -49 81 7 11 56 10 74 -2z m418 -23 c2 -15 -2 -27
-8 -27 -6 0 -8 5 -5 10 3 6 1 10 -4 10 -6 0 -11 9 -11 21 0 30 24 18 28 -14z
m-99 10 c6 -8 8 -17 4 -20 -7 -8 -33 11 -33 24 0 13 16 11 29 -4z m924 -32
c-16 -33 -33 -38 -33 -10 0 11 36 45 47 45 2 0 -5 -16 -14 -35z m467 20 c0 -8
-4 -15 -10 -15 -5 0 -7 7 -4 15 4 8 8 15 10 15 2 0 4 -7 4 -15z m90 -45 c12
-11 31 -22 41 -25 11 -4 19 -11 19 -17 0 -10 -50 -7 -125 9 -46 10 -54 33 -15
44 42 12 56 10 80 -11z m-526 -72 c-8 -63 -39 -142 -54 -133 -6 4 -4 15 6 30
10 15 12 25 5 30 -19 11 -12 59 10 73 16 10 18 16 9 27 -9 10 -7 14 7 18 10 3
19 5 21 6 1 0 0 -23 -4 -51z m-954 12 c6 -11 8 -31 4 -45 -9 -36 -34 -13 -34
31 0 38 14 44 30 14z m-402 -30 c16 -27 -3 -59 -40 -67 -35 -7 -36 -23 -2 -23
32 0 23 -16 -13 -23 -19 -4 -42 2 -70 19 -24 14 -43 21 -43 17 -1 -13 -40 38
-40 52 0 8 8 11 20 8 11 -3 20 -10 20 -15 0 -7 4 -7 13 0 6 5 38 13 70 17 38
5 57 12 57 21 0 20 13 17 28 -6z m1962 -5 c0 -14 -9 -34 -19 -44 -20 -20 -20
-20 2 -23 19 -3 22 -8 19 -39 -2 -21 1 -40 7 -44 19 -11 12 -33 -11 -41 -13
-4 -34 -15 -47 -25 -13 -11 -34 -19 -46 -19 -25 0 -50 24 -41 39 4 5 0 13 -7
18 -18 10 -31 79 -17 88 5 3 10 14 10 24 0 12 11 21 32 27 36 11 50 34 19 34
-21 0 -35 13 -24 24 3 3 33 6 65 6 55 0 58 -1 58 -25z m-400 -100 c0 -8 -6
-15 -14 -15 -17 0 -28 14 -19 24 12 12 33 6 33 -9z m1245 -95 c3 -5 1 -10 -4
-10 -6 0 -11 5 -11 10 0 6 2 10 4 10 3 0 8 -4 11 -10z m-1361 -86 c15 -6 23
-34 10 -34 -15 0 -44 22 -39 31 7 11 9 11 29 3z m-1384 -30 c0 -8 -7 -14 -15
-14 -15 0 -21 21 -9 33 10 9 24 -2 24 -19z m1448 -36 c-2 -8 10 -14 27 -16 21
-2 38 -14 55 -37 14 -19 30 -35 37 -35 37 -1 21 -50 -16 -50 -20 0 -36 12 -66
50 -22 28 -43 50 -46 50 -4 0 -9 9 -12 20 -4 16 1 23 21 29 1 1 1 -5 0 -11z
m132 -18 c0 -5 -7 -10 -15 -10 -8 0 -15 5 -15 10 0 6 7 10 15 10 8 0 15 -4 15
-10z m-1434 -21 c3 -6 0 -16 -7 -21 -10 -6 -3 -8 23 -6 39 4 39 3 4 -44 -23
-33 -46 -22 -46 23 0 15 -5 31 -10 34 -6 4 -8 11 -5 16 8 12 32 11 41 -2z
m1434 -145 c0 -17 -22 -14 -28 4 -2 7 3 12 12 12 9 0 16 -7 16 -16z m-703
-296 c11 -18 10 -36 -4 -91 -6 -27 -9 -56 -6 -64 3 -8 0 -19 -8 -24 -11 -6 -7
-14 17 -36 16 -15 47 -51 67 -79 36 -50 37 -53 32 -126 -4 -81 -17 -123 -37
-130 -11 -4 -10 -8 1 -22 11 -13 11 -20 3 -28 -7 -7 -12 -23 -12 -35 0 -35
-31 -153 -40 -153 -5 0 -6 -8 -4 -17 3 -10 -2 -27 -11 -38 -16 -20 -16 -20
-10 3 5 16 2 22 -9 22 -20 0 -20 10 -1 36 16 24 9 39 -12 23 -9 -8 -13 -8 -13
-1 0 6 5 14 10 17 15 9 1 27 -16 21 -20 -8 -17 8 6 29 21 19 27 45 10 45 -6 0
-14 -10 -19 -22 -5 -13 -10 -17 -14 -11 -4 6 1 19 10 29 10 9 23 28 30 41 10
19 9 23 -2 23 -10 0 -12 7 -5 30 6 20 5 28 -2 24 -6 -4 -8 1 -6 12 2 11 13 23
26 29 45 20 35 75 -14 75 -23 0 -32 19 -16 34 11 11 9 85 -3 83 -13 -3 -6 46
9 55 7 5 5 8 -6 8 -10 0 -18 6 -19 13 -2 59 -12 104 -25 118 -12 13 -12 18 -2
21 11 4 10 8 -1 21 -10 13 -11 20 -2 31 10 11 8 16 -9 21 -35 11 -11 25 45 25
32 0 57 -5 62 -12z m977 -63 c3 -8 2 -23 -1 -32 -6 -15 -7 -15 -14 3 -11 27
-11 44 0 44 5 0 11 -7 15 -15z m-30 -86 c-4 -25 -2 -44 6 -54 7 -9 10 -18 6
-22 -3 -3 -6 -1 -6 6 0 8 -7 11 -15 7 -12 -4 -15 6 -15 61 0 57 2 64 15 53 11
-9 13 -23 9 -51z m-1477 15 c-3 -3 -12 -4 -19 -1 -8 3 -5 6 6 6 11 1 17 -2 13
-5z m1013 -28 c0 -2 -7 -7 -16 -10 -8 -3 -12 -2 -9 4 6 10 25 14 25 6z m60
-66 c0 -5 -4 -10 -10 -10 -5 0 -10 5 -10 10 0 6 5 10 10 10 6 0 10 -4 10 -10z
m-1485 -29 c1 -13 -8 -35 -21 -50 -21 -25 -21 -28 -7 -61 30 -69 31 -85 13
-123 -10 -20 -14 -39 -10 -42 11 -7 3 -26 -30 -79 -21 -34 -25 -37 -31 -20 -9
21 -10 332 -2 363 5 20 46 41 72 38 8 -1 15 -13 16 -26z m2012 -28 c-3 -10 -5
-4 -5 12 0 17 2 24 5 18 2 -7 2 -21 0 -30z m-2222 -22 c-3 -8 -2 -17 4 -20 5
-3 11 -42 14 -86 4 -44 4 -72 1 -62 -8 27 -24 20 -25 -10 l-1 -28 -9 30 c-5
17 -11 48 -13 70 -1 22 -9 53 -17 69 -11 23 -11 30 -1 34 6 2 12 15 12 29 0
26 0 26 20 8 12 -10 18 -25 15 -34z m1041 27 c-21 -72 -21 -196 0 -270 3 -10
1 -18 -5 -18 -6 0 -10 3 -9 8 1 4 -4 24 -11 44 -7 21 -10 42 -6 48 3 5 2 10
-2 10 -5 0 -15 16 -22 35 -11 33 -10 40 19 100 32 65 48 84 36 43z m1146 -17
c3 -37 2 -39 -17 -29 -11 6 -23 15 -26 21 -11 16 3 47 21 47 13 0 19 -10 22
-39z m-262 -70 c0 -11 5 -23 11 -27 8 -4 9 0 4 15 -5 17 -2 21 14 21 21 0 29
-28 14 -44 -8 -8 -10 -13 -12 -46 -1 -23 -21 -28 -21 -5 0 8 -4 15 -9 15 -5 0
-12 16 -15 35 -4 19 -11 35 -16 35 -6 0 -10 5 -10 10 0 6 9 10 20 10 13 0 20
-7 20 -19z m75 -102 c-5 -36 -10 -43 -24 -35 -6 4 -4 17 6 36 19 38 23 38 18
-1z m-367 -17 c17 -11 4 -42 -17 -42 -13 0 -13 2 -2 9 9 6 10 11 2 15 -12 8
-15 26 -3 26 4 0 13 -4 20 -8z m-973 -41 c3 -5 1 -12 -5 -16 -5 -3 -10 1 -10
9 0 18 6 21 15 7z m1009 -5 c-3 -9 3 -17 16 -21 18 -6 21 -12 16 -36 -3 -17
-1 -29 4 -29 6 0 15 -11 20 -25 6 -15 17 -25 30 -25 31 0 24 -20 -7 -21 l-28
-1 30 -7 c28 -6 29 -7 10 -18 -20 -11 -20 -12 1 -35 12 -13 19 -29 17 -35 -3
-7 3 -13 12 -13 11 0 15 5 11 15 -3 8 -2 15 3 15 17 0 9 -86 -12 -130 l-21
-45 -4 33 c-3 32 -26 44 -35 20 -3 -10 -9 -10 -26 0 -12 7 -21 8 -21 2 0 -5
-13 -10 -28 -10 -22 0 -31 7 -45 38 -10 22 -13 38 -7 40 6 2 7 15 4 29 -5 17
-3 24 3 20 17 -11 35 48 29 91 -3 22 -2 43 1 46 12 11 12 36 0 29 -6 -4 -8 0
-5 9 4 8 2 21 -2 29 -6 9 -3 20 7 31 19 22 35 24 27 4z m316 4 c0 -5 -2 -10
-4 -10 -3 0 -8 5 -11 10 -3 6 -1 10 4 10 6 0 11 -4 11 -10z m-1180 -127 c0
-37 -25 -22 -27 16 -1 27 1 30 13 20 8 -6 14 -23 14 -36z m-140 -8 c0 -8 -7
-15 -15 -15 -16 0 -20 12 -8 23 11 12 23 8 23 -8z m56 0 c-7 -19 1 -19 21 0 8
9 18 13 22 9 3 -4 0 -9 -6 -11 -16 -6 -17 -49 -2 -58 17 -11 22 1 9 24 -18 35
12 25 37 -12 38 -57 39 -324 2 -348 -25 -15 -67 -10 -72 9 -4 13 -5 12 -6 -4
-1 -25 -31 -42 -31 -19 0 8 -4 15 -9 15 -16 0 2 134 21 157 8 10 13 69 9 111
0 6 -9 12 -18 13 -10 0 -13 3 -7 5 7 3 10 24 7 55 -2 28 -1 55 2 60 10 15 28
10 21 -6z m-55 -63 c-22 -43 -44 -152 -43 -204 0 -16 -3 -28 -8 -28 -17 0 -21
44 -10 110 6 36 14 83 17 105 3 22 10 43 16 47 18 11 37 -11 28 -30z m1119
-12 c0 -5 -2 -10 -4 -10 -3 0 -8 5 -11 10 -3 6 -1 10 4 10 6 0 11 -4 11 -10z
m-286 -105 c4 -22 9 -52 11 -68 2 -15 6 -31 9 -35 6 -10 -22 -171 -34 -191 -7
-12 -10 -6 -11 24 -2 22 -3 54 -4 70 -1 17 -8 65 -15 107 -7 43 -10 96 -6 122
7 44 8 45 25 28 10 -9 21 -35 25 -57z m361 -12 c-6 -39 -41 -103 -56 -103 -10
0 1 33 28 83 9 17 18 35 19 40 1 4 2 9 3 12 0 3 4 5 7 5 3 0 3 -16 -1 -37z
m-105 -92 c0 -16 -21 -31 -62 -45 -10 -3 -18 -4 -18 -2 0 14 25 72 34 78 15
10 46 -10 46 -31z m-37 -81 c-7 -25 -36 -23 -41 3 -3 12 3 17 21 17 20 0 24
-4 20 -20z m-28 -50 c3 -6 -1 -13 -10 -16 -19 -8 -30 0 -20 15 8 14 22 14 30
1z m15 -95 c-7 -14 -17 -25 -22 -25 -5 0 -1 14 7 31 9 17 19 28 22 25 4 -3 0
-17 -7 -31z m-89 -156 c-12 -19 -21 -30 -21 -26 0 12 33 67 38 63 1 -2 -6 -19
-17 -37z m-116 -108 c-24 -48 -36 -37 -13 12 12 23 23 37 25 30 2 -6 -3 -25
-12 -42z m-2182 -80 c23 -16 54 -40 69 -54 38 -35 29 -70 -34 -134 -46 -47
-77 -66 -158 -102 -23 -11 -22 -11 11 -7 21 2 61 21 90 42 52 36 64 47 115
107 l23 28 61 -43 c78 -55 111 -118 117 -219 2 -43 -1 -76 -7 -84 -7 -9 -8
-15 -1 -19 6 -4 8 -13 5 -21 -4 -9 4 -19 20 -26 14 -7 23 -15 21 -20 -3 -4 3
-10 14 -14 59 -18 90 -77 57 -105 -8 -6 -16 -24 -18 -38 -3 -24 -7 -27 -38
-27 -23 1 -41 -6 -51 -18 -23 -30 -69 -14 -147 50 -56 46 -68 52 -71 37 -12
-63 -66 -60 -134 7 -28 28 -68 59 -89 70 -28 14 -55 45 -104 120 -95 143 -104
211 -33 253 16 10 29 26 29 37 0 10 6 19 14 19 25 0 29 21 6 27 -18 5 -21 11
-16 35 4 21 2 28 -7 26 -6 -3 -13 -14 -15 -26 -5 -30 -16 -28 -29 6 l-11 27
-1 -27 c-1 -30 -20 -39 -22 -10 0 13 -2 14 -6 2 -4 -8 -16 -22 -27 -32 -18
-16 -32 -18 -100 -13 -89 7 -123 19 -132 48 -11 34 25 57 107 68 40 6 89 9
109 6 25 -3 45 2 70 18 19 13 54 26 78 29 39 6 42 4 43 -16 1 -22 2 -20 15 21
8 25 127 7 177 -28z m2203 -18 c-11 -20 -15 -22 -12 -8 5 31 19 60 23 48 3 -7
-3 -24 -11 -40z m1564 -14 c0 -6 7 -8 15 -5 20 7 106 -15 123 -31 15 -15 9
-14 122 -17 101 -2 166 -19 180 -46 18 -33 -3 -56 -56 -64 -112 -15 -193 1
-195 39 -1 19 -2 17 -14 -22 -3 -10 -13 -9 -44 2 -33 11 -40 11 -45 0 -2 -7
-17 -15 -33 -17 -25 -4 -26 -5 -8 -12 11 -4 26 -10 33 -12 6 -2 12 -12 12 -23
0 -11 8 -22 18 -25 10 -4 26 -22 35 -41 23 -47 10 -83 -77 -214 -49 -75 -76
-106 -104 -120 -21 -11 -62 -42 -92 -70 -32 -30 -64 -51 -76 -51 -23 0 -54 24
-54 41 0 11 -27 12 -32 1 -6 -16 -114 -91 -140 -97 -19 -5 -32 -1 -46 13 -13
13 -28 19 -41 15 -25 -6 -51 13 -51 37 0 10 -7 20 -15 24 -9 3 -15 18 -15 35
0 23 11 38 49 70 27 23 56 41 64 41 9 0 19 5 22 10 3 6 -2 10 -11 10 -13 0
-15 3 -7 11 8 8 10 46 6 118 -7 133 4 163 79 218 29 22 59 48 67 57 11 13 16
14 22 4 6 -9 9 -7 9 7 0 12 20 34 48 55 26 19 49 38 52 42 18 23 200 39 200
17z m570 -485 c0 -8 -5 -12 -10 -9 -6 4 -8 11 -5 16 9 14 15 11 15 -7z"/>
<path d="M2747 3657 c-11 -29 9 -35 121 -33 61 0 112 -2 112 -6 0 -14 28 -8
34 7 9 24 -29 36 -99 31 -36 -2 -67 0 -70 5 -10 14 -92 11 -98 -4z"/>
<path d="M2755 3497 c-11 -8 -24 -14 -30 -13 -5 0 -11 -9 -13 -21 -4 -29 12
-29 69 -3 55 25 162 27 219 4 48 -19 62 -12 34 17 -17 17 -38 21 -140 25 -96
5 -123 3 -139 -9z"/>
<path d="M2740 3422 c0 -2 5 -12 10 -23 9 -15 22 -19 65 -19 42 0 55 -3 55
-15 0 -8 5 -15 10 -15 6 0 10 7 10 15 0 8 9 15 20 15 11 0 20 -4 20 -10 0 -18
49 -11 59 9 19 36 -11 46 -136 46 -62 0 -113 -1 -113 -3z"/>
<path d="M3040 2524 c0 -8 5 -12 10 -9 6 4 8 11 5 16 -9 14 -15 11 -15 -7z"/>
<path d="M3000 2420 c0 -5 5 -10 11 -10 5 0 7 5 4 10 -3 6 -8 10 -11 10 -2 0
-4 -4 -4 -10z"/>
<path d="M3015 2380 c-3 -5 1 -10 9 -10 9 0 16 5 16 10 0 6 -4 10 -9 10 -6 0
-13 -4 -16 -10z"/>
<path d="M2570 2115 c-9 -11 -10 -19 -3 -26 8 -8 13 -5 18 11 9 28 2 35 -15
15z"/>
<path d="M1143 1055 c-21 -9 -33 -21 -33 -34 0 -27 29 -34 76 -19 32 11 39 18
39 38 0 31 -34 37 -82 15z m50 -12 c-7 -2 -19 -2 -25 0 -7 3 -2 5 12 5 14 0
19 -2 13 -5z"/>
<path d="M1305 869 c-4 -6 -5 -11 -4 -12 2 -2 11 -8 20 -15 14 -11 16 -9 11
13 -5 26 -16 32 -27 14z"/>
<path d="M1180 840 c0 -5 5 -10 10 -10 6 0 10 5 10 10 0 6 -4 10 -10 10 -5 0
-10 -4 -10 -10z"/>
<path d="M1305 810 c4 -6 10 -8 14 -6 12 8 76 -17 95 -37 23 -23 35 -22 29 3
-3 11 -14 20 -24 20 -11 0 -22 7 -25 15 -4 10 -20 15 -51 15 -27 0 -42 -4 -38
-10z"/>
<path d="M1204 787 c-4 -7 -4 -9 0 -5 4 3 23 0 41 -8 44 -18 47 -18 34 4 -13
20 -65 27 -75 9z"/>
<path d="M1315 740 c3 -5 8 -10 11 -10 2 0 4 5 4 10 0 6 -5 10 -11 10 -5 0 -7
-4 -4 -10z"/>
<path d="M1352 741 c-11 -7 -10 -10 3 -15 22 -8 22 -8 22 9 0 17 -6 18 -25 6z"/>
<path d="M4981 1224 c0 -11 3 -14 6 -6 3 7 2 16 -1 19 -3 4 -6 -2 -5 -13z"/>
<path d="M4640 1131 c0 -6 4 -13 10 -16 6 -3 7 1 4 9 -7 18 -14 21 -14 7z"/>
<path d="M4700 1075 c0 -4 10 -16 23 -27 l22 -20 -23 5 c-17 4 -26 -1 -37 -23
-16 -30 -21 -85 -7 -78 4 2 28 14 55 26 46 23 56 35 37 47 -22 14 -8 23 22 14
18 -5 53 -9 78 -8 41 1 38 2 -37 19 -45 10 -93 26 -107 35 -14 10 -26 14 -26
10z"/>
<path d="M4538 1013 c-20 -5 -31 -33 -22 -57 15 -40 103 1 90 42 -7 22 -27 26
-68 15z"/>
<path d="M4764 923 c-20 -14 -35 -53 -29 -73 15 -47 90 2 83 53 -3 23 -33 34
-54 20z"/>
<path d="M4545 880 c-3 -5 -17 -10 -31 -10 -22 0 -24 -4 -24 -51 0 -41 -3 -50
-14 -46 -10 4 -13 1 -9 -9 3 -10 -4 -16 -26 -20 -21 -5 -31 -12 -31 -25 0 -23
16 -25 28 -4 4 9 30 24 58 35 27 10 41 19 30 20 -16 0 -15 3 7 20 14 11 35 20
46 20 25 0 26 11 6 50 -16 31 -29 37 -40 20z"/>
<path d="M4637 775 c-10 -14 -27 -25 -37 -25 -11 0 -20 -7 -20 -15 0 -8 -5
-15 -12 -15 -6 0 -9 -2 -7 -5 3 -2 22 1 42 7 25 8 36 16 33 25 -3 7 3 19 14
25 11 7 20 16 20 20 0 15 -15 7 -33 -17z"/>
<path d="M4474 688 c-3 -4 4 -8 15 -8 11 0 22 4 25 8 2 4 -4 8 -15 8 -11 0
-23 -4 -25 -8z"/>
</g>
</svg>
