<?xml version="1.0" standalone="no"?>
<!DOCTYPE svg PUBLIC "-//W3C//DTD SVG 20010904//EN"
 "http://www.w3.org/TR/2001/REC-SVG-20010904/DTD/svg10.dtd">
<svg version="1.0" xmlns="http://www.w3.org/2000/svg"
 width="570.000000pt" height="330.000000pt" viewBox="0 0 570.000000 330.000000"
 preserveAspectRatio="xMidYMid meet">

<g transform="translate(0.000000,330.000000) scale(0.100000,-0.100000)"
fill="#000000" stroke="none">
<path d="M420 3290 c0 -5 9 -14 20 -20 11 -6 20 -20 20 -31 0 -18 -5 -17 -42
15 -36 31 -68 46 -68 32 0 -6 181 -153 248 -202 31 -23 57 -45 57 -50 1 -16
19 -40 45 -58 24 -17 24 -18 3 -13 -27 6 -33 -8 -21 -48 4 -16 8 -47 8 -68 0
-25 4 -37 12 -35 6 2 20 -4 29 -13 12 -12 27 -16 47 -13 17 3 33 0 36 -5 4 -6
13 -8 22 -4 8 3 22 -1 32 -9 30 -26 78 -39 120 -34 26 3 42 1 46 -7 2 -7 5 -1
5 12 1 14 -6 33 -16 43 -28 31 5 21 81 -24 39 -23 78 -48 87 -55 9 -7 19 -10
22 -6 4 3 7 -4 7 -16 0 -17 5 -21 23 -18 12 2 16 2 8 0 -12 -4 -12 -6 0 -14 9
-6 2 -7 -18 -3 -32 6 -33 5 -33 -25 0 -18 5 -42 12 -54 14 -28 56 -67 71 -67
7 0 3 -7 -7 -15 -31 -24 -78 -18 -152 19 -72 35 -139 58 -148 49 -2 -3 -2 -11
1 -19 5 -13 1 -13 -28 0 -19 9 -52 20 -74 26 -38 10 -135 89 -135 111 0 5 -7
9 -15 9 -8 0 -15 5 -15 11 0 13 -46 59 -59 59 -5 0 -11 7 -15 15 -3 8 -11 15
-18 15 -18 0 -41 37 -26 42 7 3 6 12 -5 29 -14 21 -14 26 -1 43 20 28 18 34
-16 41 -40 9 -90 34 -90 45 0 5 -6 7 -12 5 -7 -3 -40 21 -74 53 -33 31 -74 64
-90 72 -16 8 -33 20 -39 26 -9 9 -134 93 -207 137 -63 39 -58 140 -55 -1245
l2 -1263 35 -11 c21 -7 37 -8 41 -2 3 5 20 6 37 3 18 -3 32 -1 32 4 0 5 20 7
45 6 25 -2 44 -7 43 -11 -1 -5 11 -11 28 -14 57 -10 32 -33 -111 -105 -77 -38
-143 -74 -147 -80 -4 -5 -8 -133 -8 -282 l0 -273 379 0 c374 0 380 0 395 21
17 24 52 22 50 -4 -2 -23 28 -22 43 2 14 23 53 24 54 1 0 -8 5 -4 10 10 5 13
9 33 8 45 -3 32 34 105 54 106 45 4 44 3 39 39 -1 6 -16 5 -37 -4 -32 -14 -35
-13 -35 1 0 9 -8 25 -17 36 -11 12 -12 17 -4 12 10 -5 12 -4 7 3 -4 7 -14 12
-22 12 -8 0 -14 7 -14 15 0 22 -6 19 -45 -23 -29 -31 -36 -35 -45 -22 -5 8 -8
21 -5 28 7 18 -31 -3 -44 -26 -6 -9 -11 -15 -11 -12 -9 42 -7 51 20 80 17 18
30 36 30 41 0 15 -30 10 -36 -6 -8 -19 -34 -20 -34 -1 0 7 7 19 16 27 9 7 13
21 10 33 -5 19 9 46 24 46 4 0 10 -9 13 -20 3 -11 9 -20 14 -20 11 0 33 50 33
76 0 13 4 25 9 29 5 3 12 18 16 34 3 16 13 35 21 42 8 6 14 19 14 28 0 9 11
25 25 35 22 17 23 20 9 30 -14 11 -14 13 0 25 13 11 20 9 43 -8 19 -16 35 -20
55 -16 21 5 28 3 28 -9 0 -26 109 -124 159 -143 57 -21 100 -53 100 -75 1 -9
10 -20 21 -23 15 -5 19 -12 14 -27 -5 -17 -3 -18 14 -9 12 6 25 11 31 11 18 0
12 -40 -9 -67 -24 -30 -20 -39 9 -23 32 16 25 0 -16 -42 -35 -36 -36 -38 -14
-38 18 0 22 -4 18 -19 -2 -11 3 -25 14 -35 11 -9 19 -25 19 -36 0 -20 0 -20
29 1 16 12 34 18 40 14 15 -9 110 62 122 91 4 13 13 24 19 24 18 0 11 -39 -10
-57 -26 -22 -26 -36 0 -28 20 6 28 -9 11 -19 -4 -3 -14 -27 -21 -53 -7 -27
-18 -54 -23 -61 -8 -10 -7 -16 4 -22 11 -7 11 -12 1 -22 -6 -6 -12 -16 -12
-20 0 -4 482 -8 1071 -8 l1071 0 -7 32 -7 33 18 -25 c10 -14 23 -28 28 -32 14
-10 56 -10 56 0 0 19 -62 112 -87 131 -15 11 -33 25 -39 30 -7 6 -15 7 -18 4
-3 -4 -6 -2 -6 3 0 13 49 34 66 27 7 -3 30 -27 50 -54 20 -27 38 -49 40 -49 2
0 2 11 -2 25 -7 29 2 32 28 8 32 -29 20 5 -16 45 -23 25 -32 42 -26 51 6 11
15 10 43 -8 20 -12 38 -27 41 -34 2 -7 5 -4 5 6 1 10 -6 20 -14 23 -21 8 -19
34 3 34 9 -1 32 -14 51 -30 19 -16 38 -27 42 -25 4 3 17 -14 29 -37 11 -24 34
-53 50 -66 l30 -24 0 27 c0 22 3 24 18 16 14 -7 18 -18 14 -41 -3 -23 1 -36
19 -51 22 -19 34 -21 142 -17 100 2 120 6 128 21 11 18 39 24 39 7 0 -5 9 -10
19 -10 11 0 23 -4 26 -10 4 -6 54 -10 118 -10 l112 0 -62 58 c-36 33 -64 69
-67 84 -4 16 -4 28 -1 28 3 0 30 -13 59 -29 49 -26 59 -28 103 -20 50 10 106
3 85 -10 -12 -7 49 -81 68 -81 6 0 9 -4 6 -9 -10 -16 97 -21 442 -21 l342 0 0
404 0 404 -65 7 c-63 6 -86 17 -65 30 8 5 7 11 -1 21 -10 12 -14 12 -26 -5
-11 -16 -18 -18 -41 -11 -32 11 -251 32 -262 25 -4 -2 -38 4 -76 15 -38 11
-80 20 -94 20 -17 0 -39 14 -66 43 -24 25 -61 51 -90 62 -81 31 -189 89 -189
102 0 20 -62 60 -113 73 l-47 13 53 12 c91 21 86 31 -21 39 -89 7 -95 9 -107
41 -12 32 -102 92 -153 102 -10 2 -25 10 -33 17 -31 31 -7 130 41 168 22 17
37 57 17 44 -13 -8 -33 10 -27 25 3 8 25 25 50 38 40 21 45 28 45 57 0 48 -1
49 -37 48 -18 -1 -33 3 -33 7 0 5 4 9 8 9 5 0 14 12 21 26 8 19 17 25 31 21
15 -4 20 0 20 14 0 24 8 24 35 -1 12 -12 38 -23 57 -26 27 -5 40 -1 65 20 17
14 35 39 42 56 6 16 16 44 22 60 6 17 18 30 25 30 8 0 14 10 14 23 0 40 13 40
46 0 32 -37 33 -37 48 -18 13 18 13 21 -7 28 -36 14 -52 53 -17 42 13 -4 22
-1 26 8 3 9 13 13 26 9 16 -4 19 -1 16 19 -2 19 -10 25 -35 27 -49 5 -48 27 3
52 24 13 44 27 44 33 0 5 7 7 15 3 9 -3 15 0 15 10 0 11 6 14 16 10 9 -3 18
-6 20 -6 2 0 4 -7 4 -16 0 -11 6 -15 20 -11 11 3 23 1 26 -4 4 -6 10 -6 18 0
13 11 74 12 81 1 3 -4 -4 -15 -15 -25 -25 -23 -26 -39 -1 -26 14 8 20 7 25 -5
4 -11 11 -12 23 -6 24 13 63 -3 63 -25 -1 -25 -27 -58 -32 -41 -3 7 -7 -2 -10
-19 -2 -18 -1 -38 4 -45 6 -10 8 -10 8 0 0 6 7 12 16 12 11 0 14 -6 9 -21 -5
-13 -2 -25 6 -29 9 -6 9 -12 -4 -25 -20 -20 -21 -26 -4 -24 6 1 24 1 40 0 22
-1 27 -6 27 -26 0 -14 -4 -25 -10 -25 -15 0 -31 -37 -24 -55 4 -10 14 -15 25
-12 41 11 8 -35 -44 -62 -19 -10 -24 -17 -15 -22 20 -12 -17 -35 -60 -37 -20
-2 -39 -6 -42 -10 -3 -4 -14 -12 -24 -18 -30 -16 -29 -28 1 -40 33 -14 183
-16 199 -3 7 6 21 0 38 -16 38 -35 34 -48 -26 -80 -43 -22 -41 -32 7 -40 19
-3 51 -7 71 -11 52 -8 53 -29 4 -74 -50 -46 -113 -70 -189 -71 -77 -1 -93 -9
-96 -47 -2 -18 1 -34 5 -37 4 -2 40 -7 81 -10 66 -5 109 -10 132 -14 4 0 7 -8
7 -16 0 -8 6 -15 13 -15 6 0 3 -6 -8 -13 -18 -11 -14 -13 35 -17 45 -4 54 -8
52 -22 -2 -12 9 -20 38 -29 25 -8 39 -17 36 -24 -6 -16 13 -35 36 -35 10 0 18
-4 18 -9 0 -6 9 -8 20 -6 11 2 22 -1 26 -6 3 -6 21 -9 40 -7 23 2 38 -3 47
-16 13 -17 15 -16 30 17 19 39 22 89 7 117 -8 16 -5 19 20 25 l30 7 0 1059 0
1060 -322 -3 -322 -3 -16 -30 c-8 -16 -18 -31 -22 -33 -4 -2 -4 -11 -1 -20 3
-9 3 -14 -2 -10 -10 9 -52 -53 -57 -84 -2 -13 -9 -22 -15 -21 -6 1 -14 -9 -17
-23 -9 -34 -27 -52 -47 -47 -11 3 -19 -3 -24 -16 -4 -12 -12 -18 -21 -14 -8 3
-23 -2 -32 -11 -9 -9 -34 -30 -55 -46 -34 -25 -42 -28 -65 -18 -15 7 -33 16
-39 21 -9 6 -13 5 -13 -3 0 -10 -3 -10 -14 -1 -11 10 -16 9 -23 -4 -12 -20
-41 -10 -45 16 -3 18 -6 17 -38 -10 -40 -34 -50 -37 -50 -16 0 18 -12 19 -29
3 -20 -21 -69 -16 -75 7 -3 12 -24 28 -50 40 -29 13 -47 28 -51 43 -4 18 -10
22 -25 17 -11 -4 -20 -5 -20 -3 -1 2 -3 19 -6 40 -6 37 13 71 97 179 16 20 29
40 29 43 0 3 -83 6 -183 6 -204 0 -197 2 -229 -70 -9 -19 -25 -56 -37 -82 -12
-26 -21 -54 -21 -64 0 -13 -3 -14 -15 -4 -13 10 -15 9 -15 -9 0 -12 -6 -21
-15 -21 -17 0 -31 -43 -19 -62 10 -15 5 -95 -6 -117 -36 -67 -64 -221 -40
-221 6 0 10 9 10 20 0 12 11 32 25 46 l25 25 0 -25 c0 -14 -4 -28 -10 -31 -5
-3 -10 -13 -10 -22 0 -28 -90 -164 -145 -219 -29 -30 -56 -54 -60 -54 -10 0 7
74 21 91 8 8 14 28 14 43 0 15 4 25 9 22 14 -9 21 20 21 85 0 62 -5 70 -26 42
-12 -16 -13 -16 -14 9 0 17 -8 31 -20 38 -21 11 -27 46 -9 52 6 2 14 28 17 58
4 49 26 90 47 90 3 0 5 -8 5 -17 1 -32 50 35 50 67 0 16 6 35 13 42 8 7 16 35
19 62 3 27 10 51 15 55 10 6 53 138 53 160 0 8 -201 10 -717 9 -677 -3 -718
-4 -715 -20 4 -26 -36 -23 -65 3 -19 19 -23 20 -29 6 -3 -9 2 -46 10 -84 12
-50 14 -85 8 -133 l-8 -65 -44 87 c-24 48 -48 84 -55 82 -6 -3 -17 5 -23 18
-11 23 -11 23 -11 -4 -1 -15 12 -63 29 -108 30 -81 39 -140 21 -140 -5 0 -12
6 -15 13 -3 6 -3 -8 1 -33 11 -76 10 -85 -11 -85 -13 0 -23 -11 -31 -34 -10
-31 -12 -32 -27 -17 -23 22 -28 20 -28 -11 -1 -24 -2 -26 -11 -10 -6 10 -8 30
-4 45 4 21 -5 49 -35 109 -22 44 -40 85 -40 91 0 15 -51 68 -74 76 -15 5 -17
2 -13 -13 5 -20 -16 -158 -27 -168 -3 -3 -6 0 -6 8 0 17 -100 133 -107 125 -3
-3 8 -27 25 -53 16 -26 35 -65 42 -87 10 -33 10 -40 -4 -54 -15 -15 -16 -14
-16 9 0 17 -16 41 -51 74 -28 28 -47 41 -41 29 6 -11 18 -26 26 -34 9 -7 16
-22 16 -35 0 -20 52 -106 100 -166 16 -19 21 -36 18 -70 l-3 -44 -20 32 c-11
19 -22 28 -26 22 -8 -13 -64 39 -124 117 -26 32 -52 60 -58 60 -7 1 -17 2 -24
3 -6 0 -16 15 -22 31 -14 41 -21 38 -21 -10 0 -36 8 -48 75 -121 69 -75 89
-109 66 -109 -5 0 -12 -10 -15 -22 l-7 -23 -17 25 c-22 33 -84 90 -97 90 -6 0
-16 9 -23 20 -8 13 -17 18 -25 13 -7 -4 -19 -8 -27 -8 -8 0 -16 -8 -18 -17 -2
-12 2 -15 17 -11 16 4 21 1 21 -15 0 -15 7 -22 27 -24 14 -2 29 -9 31 -17 3
-10 -2 -12 -20 -8 -18 5 -39 -4 -82 -33 -32 -22 -62 -40 -66 -40 -4 0 -10 10
-14 23 -3 13 -16 28 -28 34 -13 6 -43 26 -68 45 -25 19 -54 34 -63 32 -11 -1
-17 5 -17 18 0 21 -36 88 -82 152 l-28 39 40 19 c32 16 43 18 54 8 11 -8 20
-9 35 0 12 6 21 7 21 3 0 -4 5 -2 11 4 9 9 4 26 -20 67 -32 57 -39 86 -21 86
14 0 13 27 -1 32 -7 2 -10 9 -8 16 2 7 22 -4 49 -28 52 -45 73 -50 69 -17 -2
12 0 28 5 35 10 16 56 -25 56 -51 0 -10 4 -16 9 -13 5 3 11 -1 14 -9 4 -9 1
-12 -9 -8 -27 10 -16 -44 14 -67 27 -22 27 -22 30 -2 2 14 8 19 18 15 22 -8
17 13 -11 43 -14 15 -25 30 -25 35 0 4 -7 15 -16 23 -19 20 -29 113 -13 132 9
12 17 9 45 -16 22 -19 40 -27 51 -23 12 5 14 3 8 -8 -4 -8 -5 -11 0 -7 4 4 14
3 22 -4 11 -9 12 -6 3 18 -8 19 -8 30 -1 32 5 2 7 10 4 18 -4 10 0 12 11 8 12
-5 16 0 16 19 0 30 -15 43 -33 29 -7 -5 -21 -7 -32 -4 -11 3 -215 7 -453 9
-412 4 -433 3 -430 -14 3 -12 12 -17 26 -16 12 2 22 -1 22 -5 0 -5 13 -22 30
-38 16 -16 30 -35 30 -42 0 -20 -77 24 -85 48 -4 11 -10 18 -15 15 -5 -3 -23
8 -41 25 -25 23 -43 30 -72 30 -31 0 -38 -3 -33 -15 4 -10 -1 -15 -14 -15 -11
0 -20 4 -20 10 0 5 -7 7 -15 4 -8 -4 -15 -1 -15 5 0 6 -4 11 -10 11 -5 0 -10
-4 -10 -10z m2020 -34 c0 -9 -7 -12 -20 -9 -11 3 -20 9 -20 14 0 5 9 9 20 9
11 0 20 -6 20 -14z m-1945 -46 c3 -5 2 -10 -4 -10 -5 0 -13 5 -16 10 -3 6 -2
10 4 10 5 0 13 -4 16 -10z m49 -36 c5 -14 4 -15 -9 -4 -17 14 -19 20 -6 20 5
0 12 -7 15 -16z m1836 -79 c0 -21 -6 -35 -16 -39 -12 -5 -15 -2 -10 10 3 8 6
29 6 45 0 18 4 28 10 24 6 -3 10 -21 10 -40z m1101 -22 c-8 -15 -10 -15 -11
-2 0 17 10 32 18 25 2 -3 -1 -13 -7 -23z m-148 -15 c-5 -7 -15 -32 -22 -55
-11 -38 -31 -59 -31 -33 0 18 51 112 57 106 3 -3 1 -11 -4 -18z m37 7 c0 -8
-4 -15 -10 -15 -5 0 -10 7 -10 15 0 8 5 15 10 15 6 0 10 -7 10 -15z m35 -4 c3
-5 1 -12 -5 -16 -5 -3 -10 1 -10 9 0 18 6 21 15 7z m91 -51 c-13 -34 -14 -40
-2 -40 23 0 27 -15 15 -51 -17 -50 -24 -54 -64 -35 l-36 17 37 67 c21 37 42
75 48 85 18 28 19 -1 2 -43z m-159 -20 c-6 -24 11 -38 19 -16 3 9 10 16 15 16
12 0 11 -31 0 -49 -8 -12 -12 -12 -25 -2 -8 7 -20 10 -26 6 -13 -8 -13 8 2 40
13 30 22 33 15 5z m64 -63 c-8 -8 -11 -5 -11 9 0 27 14 41 18 19 2 -9 -1 -22
-7 -28z m-1071 -63 c0 -8 -4 -12 -10 -9 -5 3 -10 13 -10 21 0 8 5 12 10 9 6
-3 10 -13 10 -21z m130 5 c0 -6 -4 -7 -10 -4 -5 3 -10 11 -10 16 0 6 5 7 10 4
6 -3 10 -11 10 -16z m-428 -157 c18 -24 38 -40 45 -38 20 8 15 -15 -8 -35 -20
-18 -22 -17 -50 3 -47 35 -99 129 -99 182 0 13 75 -62 112 -112z m-1697 38 c3
-5 -1 -10 -9 -10 -8 0 -18 5 -21 10 -3 6 1 10 9 10 8 0 18 -4 21 -10z m4125
-35 c0 -8 -4 -15 -10 -15 -5 0 -7 7 -4 15 4 8 8 15 10 15 2 0 4 -7 4 -15z
m-2356 -176 c-3 -5 0 -9 5 -9 6 0 11 -5 11 -11 0 -22 -24 -2 -32 26 -9 35 2
57 14 26 4 -13 6 -27 2 -32z m2510 -34 c3 -8 1 -15 -3 -15 -5 0 -11 7 -15 15
-3 8 -1 15 3 15 5 0 11 -7 15 -15z m423 -7 c-3 -8 -6 -5 -6 6 -1 11 2 17 5 13
3 -3 4 -12 1 -19z m-2974 -8 c9 -11 17 -28 17 -37 0 -11 -8 -6 -25 17 -14 19
-25 35 -25 37 0 10 18 0 33 -17z m97 -6 c0 -8 5 -12 10 -9 6 3 10 -3 10 -14 0
-26 -9 -27 -26 -3 -16 20 -19 56 -4 47 6 -3 10 -13 10 -21z m2854 1 c-5 -20
-3 -24 9 -19 10 3 18 -4 25 -23 8 -21 11 -23 11 -8 1 15 4 16 13 7 7 -7 22
-12 35 -12 31 0 30 -28 -2 -36 -14 -3 -25 -12 -25 -20 0 -8 -6 -14 -13 -14 -7
0 -37 -22 -67 -49 l-55 -50 -8 30 c-9 33 -13 35 -34 14 -12 -12 -18 -13 -29
-4 -10 8 -14 8 -14 1 0 -6 -7 -9 -15 -6 -8 3 -22 -1 -30 -10 -20 -20 -118 -22
-132 -3 -8 10 -53 165 -53 183 0 12 45 -10 66 -33 16 -17 30 -24 44 -20 11 3
20 2 20 -3 0 -11 59 -2 93 15 38 19 35 19 39 -7 4 -31 22 -25 26 9 4 31 27 61
57 74 36 14 46 11 39 -16z m-2794 -56 c0 -6 -4 -7 -10 -4 -5 3 -10 11 -10 16
0 6 5 7 10 4 6 -3 10 -11 10 -16z m1543 7 c5 -13 -46 -66 -64 -66 -15 0 -11
11 17 47 27 36 39 41 47 19z m-732 -250 c62 -4 99 -19 99 -41 0 -8 4 -15 10
-15 5 0 9 -12 8 -27 -2 -38 -9 -48 -20 -32 -7 11 -8 9 -6 -6 1 -11 -3 -30 -10
-42 -7 -13 -12 -38 -10 -58 1 -19 0 -36 -2 -38 -3 -2 -49 -26 -103 -52 -84
-42 -101 -47 -118 -37 -11 7 -30 10 -42 7 -16 -4 -29 0 -41 14 -10 11 -40 27
-67 36 -28 10 -49 23 -49 31 0 8 -4 14 -9 14 -5 0 -9 16 -9 36 0 27 5 38 18
41 15 4 18 13 15 49 -4 42 -2 46 33 68 27 17 54 24 97 25 33 2 65 3 71 4 7 0
18 8 25 18 8 11 21 17 33 14 12 -3 46 -7 77 -9z m495 -32 c-19 -18 -21 -11 -4
19 7 14 13 17 15 10 3 -7 -3 -20 -11 -29z m23 -97 l1 -28 -24 28 c-24 27 -24
28 -45 9 -16 -15 -21 -16 -21 -5 0 22 29 59 54 68 17 7 22 4 27 -18 4 -14 7
-39 8 -54z m-1194 -77 c8 0 15 -2 15 -4 0 -2 3 -11 6 -19 10 -27 -32 -8 -45
19 -14 31 -14 45 0 22 5 -10 17 -18 24 -18z m1101 -54 c-8 -48 5 -66 29 -46
21 17 19 1 -5 -37 -20 -33 -42 -41 -68 -24 -11 7 -10 16 7 49 12 23 21 52 21
65 0 22 7 37 18 37 2 0 1 -20 -2 -44z m-2402 25 c9 -14 -4 -41 -19 -41 -21 0
-28 19 -15 35 14 17 26 19 34 6z m1333 -37 c-7 -7 -37 7 -37 17 0 6 9 5 21 -1
11 -7 19 -14 16 -16z m-1037 7 c0 -5 34 -38 75 -72 41 -34 75 -66 75 -71 0 -6
-20 -8 -53 -4 -55 7 -78 -3 -135 -61 -12 -13 -31 -23 -41 -23 -18 0 -54 36
-64 63 -3 9 -13 7 -36 -6 -41 -24 -61 -16 -61 23 0 25 -4 29 -22 27 -17 -1
-24 4 -26 22 -5 34 12 47 40 29 60 -39 138 -23 196 42 37 40 52 49 52 31z
m1282 -95 c10 -15 10 -46 0 -46 -7 0 -42 52 -42 64 0 8 34 -6 42 -18z m153 3
c0 -17 -47 -19 -52 -2 -2 6 4 13 14 16 26 7 38 2 38 -14z m179 -5 c9 -3 16
-10 16 -14 0 -10 -40 -23 -60 -20 -8 1 -12 -1 -8 -6 12 -11 -12 -34 -36 -34
-20 0 -71 52 -61 62 3 2 30 1 61 -2 42 -5 57 -3 61 7 6 15 6 15 27 7z m156
-19 c7 -14 10 -28 7 -32 -4 -3 -7 1 -7 10 0 12 -9 17 -30 17 -20 0 -30 5 -30
15 0 25 45 18 60 -10z m215 -15 c-16 -18 -14 -25 8 -21 11 2 9 -17 -3 -24 -15
-9 -12 -28 4 -22 23 9 -15 -101 -47 -135 -12 -13 -41 -69 -71 -140 -9 -21 -20
-38 -26 -38 -5 0 -10 -9 -10 -21 0 -13 4 -18 12 -13 30 19 -123 -197 -191
-269 -20 -21 -49 -46 -65 -54 -39 -20 -163 -20 -202 0 -42 22 -78 63 -71 81 4
9 1 15 -5 13 -6 -1 -13 4 -15 11 -3 8 1 10 11 6 9 -3 16 -1 16 5 0 6 -4 11
-10 11 -5 0 -10 5 -10 11 0 6 -6 17 -14 25 -11 11 -16 11 -19 1 -4 -9 -6 -9
-6 0 -1 7 9 23 22 38 l22 25 47 -24 c105 -54 238 -41 311 30 48 47 37 62 -30
40 -89 -30 -136 -31 -230 -5 -104 27 -95 37 12 14 79 -18 133 -15 172 10 17
11 23 12 27 2 5 -9 7 -9 12 1 3 6 12 12 21 12 17 0 14 34 -5 36 -6 1 -19 2
-28 3 -8 0 -13 5 -10 9 2 4 1 14 -4 22 -7 12 -15 9 -40 -15 -37 -36 -38 -49
-3 -40 l28 7 -28 -22 c-22 -18 -35 -20 -67 -15 -47 8 -59 21 -28 31 19 6 20 8
7 18 -25 19 -31 46 -10 46 10 0 24 7 31 15 15 18 46 20 56 4 4 -7 20 -8 41 -4
24 4 33 3 28 -4 -3 -7 2 -11 14 -11 27 0 38 42 22 85 -6 17 -11 44 -11 58 0
23 6 29 31 34 37 7 55 42 32 60 -12 9 -7 13 29 18 23 3 59 7 79 8 21 1 35 5
33 9 -6 10 42 22 60 15 10 -4 13 -1 10 7 -3 8 0 17 7 22 8 4 10 3 5 -4 -4 -7
-2 -12 4 -12 6 0 13 8 17 18 7 18 33 52 41 52 3 0 -3 -9 -13 -20z m-735 5 c0
-3 -9 -15 -20 -27 -22 -24 -26 -18 -10 13 10 17 30 27 30 14z m771 -36 c-6
-16 -10 -18 -10 -7 -1 22 12 55 16 42 2 -6 -1 -22 -6 -35z m-296 -8 c-14 -29
-35 -49 -35 -36 0 9 40 65 46 65 2 0 -2 -13 -11 -29z m-427 -30 c11 -7 10 -9
-3 -15 -15 -5 -55 8 -55 19 0 8 44 5 58 -4z m-118 -44 c0 -8 3 -8 11 0 14 14
34 7 65 -23 13 -14 35 -24 51 -24 36 0 73 -25 73 -50 0 -20 -145 -160 -166
-160 -14 0 -20 16 -29 75 -13 91 -19 112 -46 152 -16 23 -29 43 -29 45 0 2 16
2 35 0 19 -2 35 -9 35 -15z m50 -287 c0 -6 8 -5 20 2 16 11 23 10 37 -5 17
-16 16 -18 -9 -42 -15 -14 -31 -25 -37 -25 -5 0 -7 -10 -4 -22 4 -22 4 -22
-11 2 -37 60 -39 69 -26 85 14 17 30 20 30 5z m2740 -185 c0 -8 -4 -15 -10
-15 -5 0 -7 7 -4 15 4 8 8 15 10 15 2 0 4 -7 4 -15z m-4610 -881 c0 -16 -16
-19 -25 -4 -8 13 4 32 16 25 5 -4 9 -13 9 -21z m750 22 c0 -3 -4 -8 -10 -11
-5 -3 -10 -1 -10 4 0 6 5 11 10 11 6 0 10 -2 10 -4z m2208 -74 l15 -23 -36 18
c-41 20 -49 36 -16 31 12 -2 29 -13 37 -26z m-1899 5 c12 -15 5 -27 -16 -27
-7 0 -13 9 -13 20 0 23 13 26 29 7z m2803 -107 c-1 -7 3 -19 10 -27 10 -13 9
-15 -7 -12 -13 3 -21 14 -23 33 -3 20 0 27 10 23 7 -2 12 -10 10 -17z m-2452
-5 c0 -8 -7 -15 -15 -15 -26 0 -18 20 13 29 1 1 2 -6 2 -14z m2017 -17 c-3 -7
-5 -2 -5 12 0 14 2 19 5 13 2 -7 2 -19 0 -25z m-3197 2 c0 -5 -2 -10 -4 -10
-3 0 -8 5 -11 10 -3 6 -1 10 4 10 6 0 11 -4 11 -10z m3207 -102 c-3 -7 -5 -2
-5 12 0 14 2 19 5 13 2 -7 2 -19 0 -25z"/>
<path d="M2797 1163 c-3 -5 16 -9 42 -9 32 -1 40 1 26 7 -26 10 -63 11 -68 2z"/>
<path d="M2690 1140 c0 -5 5 -10 11 -10 5 0 7 5 4 10 -3 6 -8 10 -11 10 -2 0
-4 -4 -4 -10z"/>
<path d="M1760 3277 c0 -7 9 -18 20 -25 18 -11 19 -10 8 13 -12 26 -28 34 -28
12z"/>
<path d="M1536 2967 c3 -10 9 -15 12 -12 3 3 0 11 -7 18 -10 9 -11 8 -5 -6z"/>
<path d="M621 2904 c0 -11 3 -14 6 -6 3 7 2 16 -1 19 -3 4 -6 -2 -5 -13z"/>
<path d="M1540 2906 c0 -9 7 -12 20 -9 11 3 20 9 20 14 0 5 -9 9 -20 9 -11 0
-20 -6 -20 -14z"/>
<path d="M1470 2736 c0 -8 5 -18 10 -21 6 -3 10 1 10 9 0 8 -4 18 -10 21 -5 3
-10 -1 -10 -9z"/>
<path d="M3672 2640 c0 -14 2 -19 5 -12 2 6 2 18 0 25 -3 6 -5 1 -5 -13z"/>
<path d="M5060 2061 c0 -6 -7 -11 -15 -11 -8 0 -15 -9 -15 -21 0 -11 4 -18 9
-14 5 3 12 1 16 -4 3 -6 15 -1 26 10 11 11 19 22 17 23 -1 1 -11 8 -20 15 -12
9 -18 10 -18 2z"/>
<path d="M4690 1953 c0 -20 3 -33 7 -30 9 10 10 67 1 67 -5 0 -8 -16 -8 -37z"/>
<path d="M4755 1270 c-4 -6 -5 -10 -3 -11 25 -6 38 -6 38 1 0 12 -29 20 -35
10z"/>
<path d="M5630 940 c0 -18 4 -21 24 -16 16 4 26 1 30 -10 3 -8 2 -13 -3 -9
-16 9 -41 -6 -41 -26 0 -10 -7 -19 -15 -19 -8 0 -15 -4 -15 -9 0 -6 8 -9 18
-9 9 1 29 -2 45 -5 l27 -7 0 60 c0 41 -4 60 -12 60 -7 0 -23 3 -35 6 -19 5
-23 2 -23 -16z"/>
<path d="M980 665 c-13 -16 -6 -35 15 -35 18 0 26 15 19 34 -8 20 -18 20 -34
1z"/>
<path d="M920 524 c0 -17 22 -14 28 4 2 7 -3 12 -12 12 -9 0 -16 -7 -16 -16z"/>
<path d="M975 430 c-8 -13 15 -13 35 0 12 8 11 10 -7 10 -12 0 -25 -4 -28 -10z"/>
<path d="M1091 344 c0 -11 3 -14 6 -6 3 7 2 16 -1 19 -3 4 -6 -2 -5 -13z"/>
<path d="M972 318 c5 -32 28 -35 28 -4 0 17 -5 26 -16 26 -10 0 -14 -7 -12
-22z"/>
<path d="M1472 27 c-7 -8 -9 -17 -5 -20 13 -13 51 -7 57 9 4 11 2 15 -8 11 -7
-3 -18 -1 -23 4 -6 6 -14 5 -21 -4z"/>
</g>
</svg>
