<?xml version="1.0" standalone="no"?>
<!DOCTYPE svg PUBLIC "-//W3C//DTD SVG 20010904//EN"
 "http://www.w3.org/TR/2001/REC-SVG-20010904/DTD/svg10.dtd">
<svg version="1.0" xmlns="http://www.w3.org/2000/svg"
 width="466.000000pt" height="720.000000pt" viewBox="0 0 466.000000 720.000000"
 preserveAspectRatio="xMidYMid meet">

<g transform="translate(0.000000,720.000000) scale(0.100000,-0.100000)"
fill="#000000" stroke="none">
<path d="M0 3600 l0 -3600 2330 0 2330 0 0 3600 0 3600 -2330 0 -2330 0 0
-3600z m2613 2653 c-7 -2 -21 -2 -30 0 -10 3 -4 5 12 5 17 0 24 -2 18 -5z
m-223 -53 c-8 -5 -19 -10 -25 -10 -5 0 -3 5 5 10 8 5 20 10 25 10 6 0 3 -5 -5
-10z m118 -32 c3 2 8 -1 10 -7 3 -8 -3 -8 -20 0 -14 6 -25 18 -25 26 0 13 3
12 14 -3 8 -11 17 -18 21 -16z m57 22 c3 -5 1 -10 -4 -10 -6 0 -11 5 -11 10 0
6 2 10 4 10 3 0 8 -4 11 -10z m355 -40 c0 -5 -7 -7 -15 -4 -8 4 -12 10 -9 15
6 11 24 2 24 -11z m115 -8 c-3 -3 -11 0 -18 7 -9 10 -8 11 6 5 10 -3 15 -9 12
-12z m52 -17 c0 -8 -4 -15 -8 -15 -11 0 -20 16 -12 24 11 11 20 7 20 -9z
m-837 -24 c0 -5 -7 -12 -16 -15 -24 -9 -28 -7 -14 9 14 17 30 20 30 6z m-40
-61 c0 -5 -4 -10 -10 -10 -5 0 -10 5 -10 10 0 6 5 10 10 10 6 0 10 -4 10 -10z
m-80 -31 c0 -6 -4 -7 -10 -4 -5 3 -10 11 -10 16 0 6 5 7 10 4 6 -3 10 -11 10
-16z m700 11 c8 -5 11 -10 5 -10 -5 0 -17 5 -25 10 -8 5 -10 10 -5 10 6 0 17
-5 25 -10z m-46 -86 c14 -15 26 -31 26 -36 0 -5 11 -26 25 -46 14 -20 25 -45
25 -54 0 -10 6 -18 13 -18 8 0 7 -4 -3 -10 -13 -8 -12 -10 3 -10 14 0 17 -9
17 -45 0 -31 5 -47 18 -54 13 -8 14 -11 2 -11 -12 0 -10 -4 4 -15 11 -8 15
-15 9 -15 -6 0 -19 -3 -29 -7 -12 -5 -15 -3 -9 6 6 10 3 11 -16 1 l-22 -13 29
-12 c21 -10 24 -14 10 -14 -18 -1 -18 -2 -1 -21 17 -19 17 -20 -1 -21 -17 -1
-17 -2 -1 -6 18 -5 24 -43 6 -43 -5 0 -8 -4 -5 -9 3 -5 -4 -11 -15 -14 -15 -4
-20 -11 -16 -21 5 -11 0 -16 -14 -16 -11 0 -22 -7 -25 -15 -4 -8 -16 -16 -28
-16 -16 -1 -17 -2 -3 -6 29 -8 19 -26 -11 -20 -27 5 -29 4 -30 -26 0 -17 -6
-33 -12 -35 -8 -3 -8 -8 1 -18 14 -17 9 -17 -28 -3 -25 10 -39 13 -93 21 -8 2
-57 -1 -108 -5 -72 -7 -97 -6 -109 5 -13 10 -17 10 -20 1 -3 -7 -11 -13 -18
-13 -7 0 -15 6 -18 13 -3 9 -7 9 -20 -1 -12 -10 -21 -11 -36 -3 -27 15 -56 14
-70 -3 -10 -12 -50 -18 -111 -17 -8 0 -35 4 -60 10 -25 5 -57 7 -72 4 -23 -5
-26 -3 -21 16 3 11 10 21 15 21 5 0 6 5 3 10 -3 6 -1 10 4 10 7 0 11 32 11 86
0 62 3 83 12 78 7 -4 8 -3 4 4 -4 6 9 36 29 67 19 30 35 60 35 66 0 6 4 8 9 4
5 -3 12 4 16 15 3 11 15 20 26 20 11 0 19 7 19 16 0 8 4 13 8 10 5 -3 37 22
72 54 36 33 68 60 72 60 4 0 8 6 8 13 0 19 38 57 56 57 9 0 12 -5 8 -12 -13
-21 -11 -65 3 -65 7 0 13 6 13 14 0 7 7 13 15 13 10 0 12 -6 8 -17 -5 -15 -4
-16 8 -7 18 15 64 25 72 17 10 -9 67 -9 67 0 0 4 10 -1 22 -13 12 -11 25 -20
28 -20 17 0 18 15 3 32 -9 10 -13 18 -8 18 4 0 16 -10 26 -22 l19 -21 0 22 c0
15 -7 25 -20 28 -19 5 -20 6 -3 19 25 19 63 18 63 -2 0 -10 5 -14 16 -10 8 3
12 2 9 -4 -3 -6 3 -24 15 -40 16 -22 17 -28 6 -24 -9 3 -16 12 -16 19 0 14
-29 29 -38 20 -3 -3 0 -5 6 -5 6 0 13 -9 17 -19 3 -10 26 -41 50 -67 36 -38
45 -44 46 -28 0 10 3 13 6 7 2 -7 11 -13 19 -13 12 0 12 4 -2 25 -12 18 -13
25 -4 25 9 0 10 3 1 13 -6 8 -8 17 -4 20 3 4 0 7 -8 7 -11 0 -11 2 -1 8 13 9
6 42 -9 42 -5 0 -9 7 -9 15 0 9 -7 29 -15 45 -19 37 -6 38 29 4z m590 -220 c7
-19 2 -18 -19 6 -16 17 -16 20 -3 15 9 -4 19 -13 22 -21z m-235 -6 c-9 -11
-55 -15 -79 -8 -12 3 38 19 63 19 22 1 25 -2 16 -11z m48 6 c-3 -3 -12 -4 -19
-1 -8 3 -5 6 6 6 11 1 17 -2 13 -5z m64 -70 c-11 -15 -21 -23 -21 -17 0 11 33
53 38 48 3 -2 -5 -16 -17 -31z m-1337 -69 c-31 -31 -35 -31 -21 0 7 14 20 25
29 25 14 0 13 -5 -8 -25z m1036 -11 c0 -2 -12 -4 -26 -4 -14 0 -23 4 -20 9 6
8 46 4 46 -5z m-977 -19 c-3 -9 -8 -14 -10 -11 -3 3 -2 9 2 15 9 16 15 13 8
-4z m944 -27 c-3 -7 -5 -2 -5 12 0 14 2 19 5 13 2 -7 2 -19 0 -25z m16 -45
c-7 -2 -19 -2 -25 0 -7 3 -2 5 12 5 14 0 19 -2 13 -5z m-663 -372 c0 -5 12
-13 27 -18 l27 -9 -36 -27 c-20 -15 -49 -29 -66 -31 -30 -4 -30 -4 -18 26 21
50 66 90 66 59z m1055 -18 c-10 -9 -32 -17 -50 -17 -18 -1 -31 -5 -28 -10 3
-5 0 -7 -6 -5 -25 9 -15 23 24 35 22 6 48 12 58 13 17 1 17 0 2 -16z m-1092
-144 c26 -12 47 -47 47 -78 0 -10 10 -25 23 -34 33 -22 67 -56 67 -67 0 -16
-42 -12 -105 10 -32 11 -80 20 -106 20 -43 0 -51 -4 -80 -38 l-32 -39 -41 23
c-23 13 -41 27 -42 31 -2 24 -18 43 -35 43 -10 0 -19 4 -19 9 0 11 86 25 100
16 21 -13 75 9 109 44 28 29 79 71 88 71 1 0 13 -5 26 -11z m629 -21 c-7 -7
-12 -8 -12 -2 0 6 3 14 7 17 3 4 9 5 12 2 2 -3 -1 -11 -7 -17z m-462 -42 c36
-14 91 -33 123 -42 32 -9 56 -18 54 -20 -8 -8 -117 -11 -122 -4 -3 4 -36 26
-75 49 -62 37 -92 62 -57 48 6 -3 41 -16 77 -31z m420 -6 c-8 -5 -19 -10 -25
-10 -5 0 -3 5 5 10 8 5 20 10 25 10 6 0 3 -5 -5 -10z m470 -65 c-7 -8 -17 -15
-22 -15 -6 0 -5 7 2 15 7 8 17 15 22 15 6 0 5 -7 -2 -15z m-75 -25 c-3 -5 -11
-10 -16 -10 -6 0 -7 5 -4 10 3 6 11 10 16 10 6 0 7 -4 4 -10z m-685 -20 c-19
-13 -30 -13 -30 0 0 6 10 10 23 10 18 0 19 -2 7 -10z m-58 -91 c14 -18 18 -38
16 -68 l-3 -43 -27 22 c-23 17 -28 19 -28 6 0 -9 -6 -16 -13 -16 -10 0 -13 15
-11 54 1 30 5 60 9 66 11 17 36 8 57 -21z m-382 1 c0 -5 -2 -10 -4 -10 -3 0
-8 5 -11 10 -3 6 -1 10 4 10 6 0 11 -4 11 -10z m223 -237 c-7 -2 -19 -2 -25 0
-7 3 -2 5 12 5 14 0 19 -2 13 -5z m-670 -837 c3 -12 -30 -32 -39 -24 -11 12 5
40 21 36 9 -2 17 -7 18 -12z m-29 -77 c-9 -10 -22 -15 -29 -12 -22 8 4 41 27
35 17 -4 18 -6 2 -23z m-34 -31 c0 -13 -23 -5 -28 10 -2 7 2 10 12 6 9 -3 16
-11 16 -16z m1877 6 c-3 -3 -12 -4 -19 -1 -8 3 -5 6 6 6 11 1 17 -2 13 -5z
m-1962 -64 c3 -5 1 -10 -4 -10 -6 0 -11 5 -11 10 0 6 2 10 4 10 3 0 8 -4 11
-10z m2108 -30 c-11 -9 -93 0 -93 10 0 13 42 17 73 7 16 -5 25 -13 20 -17z
m-47 -21 c5 -9 -17 -13 -46 -9 -20 3 -23 7 -16 18 6 11 54 4 62 -9z m-2206 5
c0 -14 -53 -73 -61 -68 -15 9 -10 24 17 49 26 24 44 32 44 19z m-214 -36 c-3
-13 -6 -33 -6 -44 0 -13 -8 -24 -20 -27 -17 -4 -19 -1 -15 36 4 37 17 56 39
57 4 0 6 -10 2 -22z m136 -11 c-2 -10 1 -24 7 -31 7 -8 3 -25 -11 -54 -12 -23
-23 -40 -26 -38 -2 2 4 18 13 35 13 25 13 35 4 54 -12 22 -12 22 -25 -8 -13
-29 -13 -29 -14 -5 0 19 -2 22 -9 10 -6 -8 -7 -18 -5 -22 3 -4 0 -8 -5 -8 -6
0 -11 -7 -11 -15 0 -8 -4 -15 -10 -15 -5 0 -10 9 -10 20 0 11 -4 20 -10 20 -5
0 -10 7 -10 15 0 8 7 15 15 15 9 0 20 12 25 26 9 22 15 25 47 22 30 -2 37 -7
35 -21z m2228 14 c0 -5 -7 -11 -15 -15 -15 -5 -20 5 -8 17 9 10 23 9 23 -2z
m-53 -15 c-3 -8 -1 -17 6 -20 7 -2 2 -5 -10 -5 -25 -1 -29 9 -11 27 16 16 21
15 15 -2z m-56 -72 c-11 -15 -21 -24 -21 -20 0 12 33 57 37 52 3 -3 -4 -17
-16 -32z m267 4 c-7 -19 -38 -22 -38 -4 0 10 9 16 21 16 12 0 19 -5 17 -12z
m-78 -2 c0 -2 -7 -6 -15 -10 -8 -3 -15 -1 -15 4 0 6 7 10 15 10 8 0 15 -2 15
-4z m114 -11 c-4 -8 -17 -18 -31 -21 -15 -4 -22 -12 -19 -20 3 -9 -2 -14 -13
-14 -10 0 -24 -7 -31 -15 -8 -9 -9 -15 -2 -15 6 0 14 5 18 11 3 6 17 8 30 5
17 -5 26 -2 30 9 4 8 12 15 20 15 8 0 11 -6 7 -15 -3 -10 -1 -15 7 -13 7 2 15
-3 17 -9 3 -7 0 -13 -5 -13 -6 0 -8 -9 -5 -20 5 -20 13 -21 62 -2 9 3 12 1 7
-6 -4 -7 -14 -12 -23 -12 -8 0 -26 -8 -39 -19 -27 -21 -108 -28 -101 -8 2 6
14 14 27 17 15 4 26 16 32 35 4 16 6 31 4 33 -5 4 -54 -26 -80 -50 -11 -10
-25 -18 -32 -18 -7 0 -14 -6 -16 -12 -3 -7 -7 -2 -10 10 -4 12 -3 20 1 18 4
-3 15 4 24 14 20 23 4 38 -20 18 -15 -11 -16 -11 -10 5 4 10 2 17 -5 17 -13 0
63 44 105 61 15 6 27 15 27 20 0 5 7 9 15 9 9 0 12 -6 9 -15z m-174 -20 c-27
-14 -36 -13 -25 4 3 6 16 11 28 11 21 -1 21 -1 -3 -15z m-2400 -12 c0 -5 -5
-15 -10 -23 -8 -12 -10 -11 -10 8 0 12 5 22 10 22 6 0 10 -3 10 -7z m2335 -30
c-16 -14 -38 -35 -47 -46 -14 -16 -18 -17 -18 -5 0 20 59 78 79 78 11 -1 6 -9
-14 -27z m-2388 0 c6 -16 -40 -38 -61 -30 -24 10 -20 40 4 34 11 -3 20 -1 20
5 0 13 32 6 37 -9z m123 7 c0 -5 -4 -10 -10 -10 -5 0 -10 5 -10 10 0 6 5 10
10 10 6 0 10 -4 10 -10z m2137 -32 c-3 -7 -5 -2 -5 12 0 14 2 19 5 13 2 -7 2
-19 0 -25z m-107 -2 c0 -2 -12 -25 -27 -50 -16 -26 -33 -56 -39 -67 -6 -11
-21 -27 -33 -35 -12 -9 -19 -19 -16 -23 2 -5 -7 -19 -20 -31 -14 -13 -25 -29
-25 -35 0 -6 -6 -19 -13 -29 -12 -16 -13 -16 -12 7 0 13 5 30 11 38 6 8 22 34
36 59 37 65 116 170 128 170 5 0 10 -2 10 -4z m-1940 -20 c0 -7 -9 -16 -20
-19 -25 -6 -26 1 -2 19 22 17 22 17 22 0z m64 -10 c-3 -9 -10 -13 -16 -10 -5
3 -4 12 3 20 15 18 22 13 13 -10z m82 -27 c-6 -38 -5 -40 15 -34 18 6 20 5 10
-14 -12 -22 -31 -28 -31 -10 0 8 -5 7 -15 -1 -28 -23 -36 11 -16 63 21 53 46
50 37 -4z m1885 18 c-10 -9 -11 -8 -5 6 3 10 9 15 12 12 3 -3 0 -11 -7 -18z
m-41 3 c0 -5 -4 -10 -10 -10 -5 0 -10 5 -10 10 0 6 5 10 10 10 6 0 10 -4 10
-10z m-2200 -21 c0 -4 -6 -11 -13 -17 -9 -8 -16 -6 -25 8 -11 18 -9 20 13 18
14 -1 25 -5 25 -9z m780 -4 c7 -8 9 -15 6 -15 -4 0 -14 7 -22 15 -9 8 -11 15
-6 15 5 0 15 -7 22 -15z m1989 -6 c-8 -5 -21 -9 -29 -9 -12 1 -11 4 4 15 10 8
23 12 29 8 5 -3 3 -9 -4 -14z m-739 -4 c0 -8 -4 -15 -10 -15 -5 0 -10 -6 -10
-13 0 -19 -37 -50 -49 -42 -18 10 -12 34 14 60 27 28 55 33 55 10z m179 6 c7
-5 10 -14 6 -21 -6 -9 -9 -9 -16 1 -7 11 -9 11 -9 1 0 -7 -4 -10 -10 -7 -14 9
-12 35 3 35 6 0 18 -4 26 -9z m91 -6 c-7 -9 -15 -13 -17 -11 -7 7 7 26 19 26
6 0 6 -6 -2 -15z m-1880 -26 c0 -17 -4 -28 -10 -24 -5 3 -10 17 -10 31 0 13 5
24 10 24 6 0 10 -14 10 -31z m60 7 c0 -24 25 -43 35 -26 3 4 -1 10 -7 13 -10
3 -9 9 4 23 16 16 18 16 24 1 3 -9 14 -17 23 -17 24 -1 65 -35 57 -49 -10 -16
-26 -14 -26 4 0 19 -10 19 -39 -1 -20 -14 -27 -15 -49 -3 -15 7 -30 14 -33 16
-3 1 -4 -9 -1 -23 5 -30 28 -41 51 -27 12 7 20 6 29 -3 18 -19 15 -27 -8 -21
-10 3 -21 0 -22 -5 -2 -6 -14 -5 -30 3 -31 14 -58 6 -58 -16 0 -11 6 -14 24
-9 31 8 43 -12 21 -36 -19 -21 -15 -25 29 -32 31 -5 30 -25 -1 -25 -15 -1 -37
-2 -48 -4 -15 -3 -20 1 -20 16 0 31 -23 65 -40 59 -21 -8 -19 -44 3 -45 10 0
12 -3 5 -6 -27 -10 -9 -57 22 -58 6 0 11 -4 12 -9 1 -5 7 -13 15 -17 9 -6 6
-9 -10 -9 -23 0 -76 33 -67 42 2 2 -1 34 -7 71 -10 60 -9 72 8 107 20 43 40
52 40 20 0 -11 -4 -20 -8 -20 -19 0 -23 -2 -31 -16 -5 -8 -5 -23 -2 -34 5 -16
10 -18 26 -9 14 7 18 16 14 30 -4 10 -2 19 3 19 11 0 24 34 26 70 4 49 36 72
36 26z m1300 14 c8 -5 11 -10 5 -10 -5 0 -17 5 -25 10 -8 5 -10 10 -5 10 6 0
17 -5 25 -10z m758 -25 c-1 -1 -13 -6 -26 -10 l-23 -7 23 27 c19 22 24 24 26
10 2 -9 2 -18 0 -20z m-2443 5 c3 -5 2 -10 -4 -10 -5 0 -13 5 -16 10 -3 6 -2
10 4 10 5 0 13 -4 16 -10z m1745 0 c0 -5 -12 -10 -27 -9 l-28 1 25 8 c14 4 26
8 28 9 1 1 2 -3 2 -9z m387 -14 c-13 -14 -16 -14 -27 0 -11 12 -10 13 3 9 8
-4 18 -1 22 5 4 6 9 9 12 6 3 -3 -1 -12 -10 -20z m-2303 -21 c25 -38 18 -53
-9 -20 -14 17 -25 33 -25 38 0 15 18 6 34 -18z m2262 -3 c1 -26 -27 -62 -49
-62 -9 0 -21 -8 -26 -17 -6 -10 -11 -14 -11 -10 0 4 8 19 17 34 10 14 18 32
19 40 3 21 25 44 38 40 6 -2 12 -13 12 -25z m534 17 c0 -8 5 -8 15 1 17 14 19
7 5 -20 -7 -13 -6 -19 6 -24 8 -3 12 -10 9 -16 -3 -5 2 -10 11 -10 23 0 7 -15
-25 -25 -15 -5 -21 -4 -17 3 10 16 -6 21 -34 10 -18 -7 -21 -11 -11 -17 9 -6
5 -11 -16 -19 -15 -5 -52 -19 -80 -31 -29 -11 -53 -16 -53 -11 0 19 54 58 90
64 30 5 36 10 36 28 -1 13 4 23 10 23 6 0 18 8 28 18 17 16 16 17 -2 17 -11 0
-22 -7 -26 -15 -3 -8 -18 -21 -33 -27 -15 -7 -34 -18 -41 -25 -7 -7 -19 -13
-25 -13 -7 0 0 11 15 25 15 14 30 25 34 25 3 0 19 11 36 25 31 26 68 33 68 14z
m-1946 -21 c-4 -7 -7 -29 -5 -49 1 -21 -4 -41 -10 -45 -9 -5 -10 0 -5 20 4 15
2 26 -3 26 -6 0 -8 7 -5 15 7 17 -11 21 -19 5 -3 -6 -4 -5 -3 2 2 7 9 13 17
13 8 0 18 6 22 13 4 6 10 12 13 12 3 0 2 -5 -2 -12z m-424 -10 c0 -4 0 -11 0
-15 0 -11 -21 -11 -42 -1 -27 13 -21 25 12 25 17 0 30 -4 30 -9z m-523 -30
c-3 -8 -6 -5 -6 6 -1 11 2 17 5 13 3 -3 4 -12 1 -19z m2117 -15 c-4 -16 -12
-37 -18 -48 -10 -19 -11 -19 -14 3 -2 13 2 30 8 38 10 11 10 14 -1 14 -11 0
-11 2 1 10 25 16 31 11 24 -17z m-1353 2 c3 -35 5 -40 17 -37 18 3 15 -28 -3
-35 -21 -7 -23 -4 -31 45 -4 28 -3 42 5 42 6 0 12 -7 12 -15z m929 -15 c-6
-12 -14 -19 -17 -17 -2 3 1 15 7 27 6 12 14 19 17 17 2 -3 -1 -15 -7 -27z
m-1465 10 c3 -5 1 -10 -4 -10 -6 0 -11 5 -11 10 0 6 2 10 4 10 3 0 8 -4 11
-10z m268 -9 c-2 -10 3 -25 11 -34 10 -10 12 -18 6 -22 -5 -3 -10 -2 -10 2 0
5 -13 16 -29 26 -22 13 -30 14 -34 5 -4 -10 -6 -10 -6 0 -1 7 7 15 17 18 9 3
24 9 32 14 8 5 16 9 17 9 0 1 -1 -7 -4 -18z m2214 3 c-3 -3 -12 -4 -19 -1 -8
3 -5 6 6 6 11 1 17 -2 13 -5z m-2634 -16 c14 -11 14 -16 3 -31 -13 -16 -14
-16 -29 7 -22 33 -7 48 26 24z m2297 8 c0 -3 -4 -8 -10 -11 -5 -3 -10 -1 -10
4 0 6 5 11 10 11 6 0 10 -2 10 -4z m-1509 -20 c14 8 11 -10 -5 -32 -14 -18
-15 -17 -14 16 1 19 3 29 5 22 3 -6 9 -10 14 -6z m-166 -6 c-3 -6 5 -10 19
-10 34 0 24 -26 -12 -33 -31 -6 -43 0 -24 12 7 4 10 15 6 24 -3 10 -1 17 6 17
6 0 8 -4 5 -10z m1569 -9 c3 -5 -3 -11 -15 -14 -16 -4 -18 -3 -8 9 13 16 16
17 23 5z m56 -16 c-7 -9 -15 -13 -18 -10 -3 2 1 11 8 20 7 9 15 13 18 10 3 -2
-1 -11 -8 -20z m-1380 -7 c0 -5 -5 -6 -12 -2 -8 5 -9 2 -5 -10 4 -10 1 -24 -7
-31 -12 -12 -14 -9 -13 24 2 31 5 37 20 33 9 -2 17 -9 17 -14z m-746 -4 c3 -8
2 -12 -4 -9 -6 3 -10 10 -10 16 0 14 7 11 14 -7z m-70 -19 c9 -14 13 -25 10
-25 -11 0 -44 32 -44 42 0 16 18 8 34 -17z m366 18 c-1 -19 -19 -35 -30 -28
-10 6 -9 11 5 22 22 15 25 16 25 6z m-539 -12 c-10 -7 -9 -12 8 -23 11 -8 18
-18 14 -21 -12 -13 -23 -7 -37 21 -14 26 -13 28 7 29 15 2 18 0 8 -6z m1086 3
c-3 -3 -12 -4 -19 -1 -8 3 -5 6 6 6 11 1 17 -2 13 -5z m603 -13 c-15 -29 -29
-35 -27 -12 0 11 5 17 9 15 4 -3 8 0 8 5 0 6 5 11 10 11 7 0 7 -6 0 -19z
m1188 7 c-2 -7 -14 -20 -28 -29 -14 -9 -36 -27 -50 -41 -14 -14 -36 -31 -50
-37 -14 -7 -1 10 30 38 46 42 52 52 40 61 -12 8 -9 9 12 6 15 -3 30 0 33 5 9
13 15 11 13 -3z m-538 -8 c0 -5 -5 -10 -11 -10 -5 0 -7 5 -4 10 3 6 8 10 11
10 2 0 4 -4 4 -10z m-2195 -18 c-3 -3 -11 0 -18 7 -9 10 -8 11 6 5 10 -3 15
-9 12 -12z m735 3 c0 -8 -4 -15 -10 -15 -5 0 -7 7 -4 15 4 8 8 15 10 15 2 0 4
-7 4 -15z m30 -4 c7 -14 7 -22 -2 -27 -6 -4 -8 -3 -4 4 3 6 2 13 -4 17 -10 6
-14 25 -5 25 2 0 9 -9 15 -19z m-346 -6 c-4 -8 -8 -15 -10 -15 -2 0 -4 7 -4
15 0 8 4 15 10 15 5 0 7 -7 4 -15z m2396 0 c-7 -8 -22 -15 -34 -15 -21 1 -21
1 -2 15 27 21 53 20 36 0z m-1773 -10 c0 -8 -6 -15 -13 -15 -8 0 -11 6 -8 15
4 8 9 15 13 15 4 0 8 -7 8 -15z m528 -18 c-8 -13 -12 -27 -8 -31 4 -4 0 -4
-10 0 -9 3 -17 10 -17 14 0 22 14 40 31 40 18 0 18 -2 4 -23z m439 -2 c-4 -8
-10 -13 -15 -10 -4 3 -6 12 -3 20 4 8 10 13 15 10 4 -3 6 -12 3 -20z m-1960
-25 c-6 -5 -24 21 -24 34 0 6 6 1 14 -10 8 -10 12 -21 10 -24z m332 13 c-10
-10 -19 5 -10 18 6 11 8 11 12 0 2 -7 1 -15 -2 -18z m189 5 c-2 -24 -19 -35
-30 -18 -7 11 11 40 25 40 3 0 6 -10 5 -22z m75 12 c0 -5 -2 -10 -4 -10 -3 0
-8 5 -11 10 -3 6 -1 10 4 10 6 0 11 -4 11 -10z m230 0 c0 -5 -7 -10 -15 -10
-8 0 -15 5 -15 10 0 6 7 10 15 10 8 0 15 -4 15 -10z m-1080 -21 c0 -6 -4 -7
-10 -4 -5 3 -10 11 -10 16 0 6 5 7 10 4 6 -3 10 -11 10 -16z m1800 17 c0 -3
-4 -8 -10 -11 -5 -3 -10 -1 -10 4 0 6 5 11 10 11 6 0 10 -2 10 -4z m80 -28 c0
-5 -7 -8 -16 -6 -11 2 -18 -5 -20 -20 -3 -14 0 -21 6 -17 5 3 10 1 10 -5 0 -7
-7 -10 -15 -6 -24 9 -17 -11 11 -33 22 -18 24 -23 13 -43 -7 -12 -19 -29 -28
-38 -13 -13 -14 -13 -6 5 11 26 10 66 -2 74 -14 9 -10 68 5 83 6 6 12 18 12
26 0 12 3 12 15 2 8 -7 15 -17 15 -22z m43 4 c-3 -12 -9 -22 -14 -22 -12 0
-11 7 2 32 13 25 20 19 12 -10z m1097 24 c0 -11 -19 -15 -25 -6 -3 5 1 10 9
10 9 0 16 -2 16 -4z m-2009 -23 c8 -9 9 -14 2 -10 -7 4 -14 -1 -18 -13 -3 -11
-10 -20 -15 -20 -4 0 -3 14 3 30 6 17 12 30 13 30 1 0 8 -8 15 -17z m115 5 c5
-7 3 -8 -6 -3 -10 6 -12 3 -7 -14 3 -14 -1 -24 -13 -31 -22 -12 -40 -13 -25
-2 6 4 16 19 22 35 14 30 18 32 29 15z m889 2 c4 -6 -5 -10 -19 -10 -14 0 -26
5 -26 10 0 6 9 10 19 10 11 0 23 -4 26 -10z m-1111 -8 c3 -5 -1 -9 -9 -9 -8 0
-15 4 -15 9 0 4 4 8 9 8 6 0 12 -4 15 -8z m41 -2 c-3 -5 -12 -10 -18 -10 -7 0
-6 4 3 10 19 12 23 12 15 0z m695 -15 c-7 -9 -15 -13 -18 -10 -3 2 1 11 8 20
7 9 15 13 18 10 3 -2 -1 -11 -8 -20z m46 -10 c-9 -14 -14 -31 -10 -38 4 -7 3
-9 -1 -4 -5 4 -14 -5 -21 -20 l-12 -28 -1 33 c-1 20 3 31 9 27 6 -3 10 5 10
19 0 14 8 29 17 35 25 14 28 6 9 -24z m659 25 c3 -5 -1 -10 -10 -10 -9 0 -13
5 -10 10 3 6 8 10 10 10 2 0 7 -4 10 -10z m-2140 -20 c20 -3 16 -8 -13 -15
-26 -5 -30 -10 -28 -36 3 -35 -4 -36 -33 -5 -24 25 -21 46 5 46 8 0 17 7 20
15 4 10 11 12 22 6 10 -5 22 -10 27 -11z m1968 5 c-3 -9 -8 -14 -10 -11 -3 3
-2 9 2 15 9 16 15 13 8 -4z m732 5 c-11 -5 -27 -9 -35 -9 -13 -1 -13 0 0 9 8
5 24 9 35 9 l20 0 -20 -9z m-2271 -16 c3 -8 2 -12 -4 -9 -6 3 -10 10 -10 16 0
14 7 11 14 -7z m156 0 c0 -8 -5 -12 -10 -9 -6 4 -8 11 -5 16 9 14 15 11 15 -7z
m1217 -17 c-10 -16 -12 -28 -5 -40 7 -13 5 -17 -7 -17 -21 0 -30 4 -28 11 1 3
-9 4 -22 1 -15 -2 -25 0 -25 7 0 6 9 11 20 11 11 0 32 14 47 30 30 34 43 32
20 -3z m-1177 19 c0 -3 -4 -8 -10 -11 -5 -3 -10 -1 -10 4 0 6 5 11 10 11 6 0
10 -2 10 -4z m-780 -26 c6 -10 9 -23 9 -27 -1 -4 1 -16 6 -26 13 -31 -5 -33
-29 -3 -14 18 -21 38 -18 53 5 28 18 30 32 3z m1100 10 c0 -5 -4 -10 -10 -10
-5 0 -10 5 -10 10 0 6 5 10 10 10 6 0 10 -4 10 -10z m415 0 c3 -5 2 -10 -4
-10 -5 0 -13 5 -16 10 -3 6 -2 10 4 10 5 0 13 -4 16 -10z m-851 -22 c9 -34 7
-38 -9 -32 -16 6 -21 54 -6 54 5 0 11 -10 15 -22z m1206 11 c0 -5 -4 -7 -10
-4 -5 3 -10 1 -10 -4 0 -6 -5 -11 -11 -11 -8 0 -8 5 1 15 14 17 30 20 30 4z
m1105 1 c3 -5 1 -10 -4 -10 -6 0 -11 5 -11 10 0 6 2 10 4 10 3 0 8 -4 11 -10z
m-2811 -11 c-3 -6 -1 -14 5 -18 8 -5 5 -14 -9 -31 -11 -13 -23 -20 -28 -15 -4
4 -1 10 6 12 6 3 12 18 12 34 0 16 5 29 11 29 5 0 7 -5 3 -11z m1951 -11 c-6
-15 -35 -21 -35 -7 0 8 33 30 38 25 1 -2 0 -10 -3 -18z m-1408 -10 c-3 -8 -6
-5 -6 6 -1 11 2 17 5 13 3 -3 4 -12 1 -19z m37 7 c-4 -8 -8 -15 -10 -15 -2 0
-4 7 -4 15 0 8 4 15 10 15 5 0 7 -7 4 -15z m164 7 c14 -9 6 -42 -10 -42 -6 0
-8 7 -4 15 3 8 1 15 -4 15 -6 0 -10 5 -10 10 0 12 10 13 28 2z m627 -2 c-3 -5
-11 -10 -16 -10 -6 0 -7 5 -4 10 3 6 11 10 16 10 6 0 7 -4 4 -10z m515 0 c0
-5 -4 -10 -10 -10 -5 0 -10 5 -10 10 0 6 5 10 10 10 6 0 10 -4 10 -10z m-1435
-10 c-3 -5 -10 -10 -16 -10 -5 0 -9 5 -9 10 0 6 7 10 16 10 8 0 12 -4 9 -10z
m232 4 c-3 -3 -12 -4 -19 -1 -8 3 -5 6 6 6 11 1 17 -2 13 -5z m725 -26 c-8 -8
-9 -4 -5 13 4 13 8 18 11 10 2 -7 -1 -18 -6 -23z m111 10 c5 -20 4 -21 -6 -7
-7 9 -19 18 -27 22 -10 4 -9 6 6 6 14 1 24 -7 27 -21z m-883 9 c0 -2 -10 -12
-21 -23 -22 -19 -22 -19 -10 4 10 18 31 31 31 19z m267 -19 c-3 -8 -6 -5 -6 6
-1 11 2 17 5 13 3 -3 4 -12 1 -19z m1803 8 c0 -2 -7 -7 -16 -10 -8 -3 -12 -2
-9 4 6 10 25 14 25 6z m-2261 -51 c0 -5 -4 -3 -9 5 -5 8 -9 22 -9 30 0 16 17
-16 18 -35z m901 35 c0 -5 -7 -10 -16 -10 -8 0 -12 5 -9 10 3 6 10 10 16 10 5
0 9 -4 9 -10z m-847 -62 c-2 -4 -13 2 -24 13 -20 20 -20 21 -2 34 16 12 19 11
24 -13 3 -15 4 -30 2 -34z m305 32 c-5 -17 -7 -41 -4 -55 5 -20 3 -23 -10 -18
-12 5 -15 14 -10 42 3 20 6 42 6 49 0 6 7 12 14 12 12 0 13 -6 4 -30z m982 17
c0 -20 -37 -50 -50 -42 -8 5 -4 15 11 31 25 27 39 31 39 11z m880 1 c0 -4 -9
-8 -20 -8 -10 0 -43 -6 -72 -14 -29 -8 -59 -16 -67 -17 -24 -7 -23 18 1 26 62
21 158 29 158 13z m-1762 -34 c0 -20 -3 -22 -14 -13 -8 6 -14 20 -14 30 0 11
5 16 14 13 7 -3 14 -16 14 -30z m639 29 c-4 -3 -3 -11 3 -18 6 -7 1 -24 -17
-51 -37 -56 -43 -61 -43 -36 0 13 6 22 15 22 8 0 15 5 15 10 0 11 -22 9 -31
-3 -10 -13 -39 4 -39 23 0 13 5 17 20 13 21 -6 53 24 44 39 -3 5 5 8 17 8 12
0 19 -3 16 -7z m-982 -13 c3 -5 1 -10 -4 -10 -6 0 -11 5 -11 10 0 6 2 10 4 10
3 0 8 -4 11 -10z m302 -12 c-3 -8 -6 -5 -6 6 -1 11 2 17 5 13 3 -3 4 -12 1
-19z m419 -3 c-2 -7 1 -18 7 -24 8 -8 7 -11 -4 -11 -19 0 -39 20 -39 38 0 12
3 12 17 1 15 -12 16 -12 10 4 -4 11 -3 16 4 12 6 -4 8 -13 5 -20z m-1236 -18
c0 -5 -10 -7 -22 -5 -11 2 -23 -3 -25 -10 -3 -7 1 -10 10 -6 8 3 17 1 21 -4 6
-10 -30 -9 -41 1 -3 4 4 18 17 32 22 24 39 20 40 -8z m-170 5 c7 2 14 -9 15
-25 4 -32 -6 -28 -37 16 -13 18 -15 27 -6 19 9 -7 21 -11 28 -10z m670 -8 c0
-8 -4 -14 -9 -14 -6 0 -9 9 -8 19 1 22 17 18 17 -5z m77 20 c-3 -3 -12 -4 -19
-1 -8 3 -5 6 6 6 11 1 17 -2 13 -5z m351 -15 c12 -12 18 -29 15 -40 -7 -24 -6
-24 -29 3 -19 21 -19 21 1 15 14 -5 11 0 -10 18 -22 19 -26 25 -13 25 10 0 26
-9 36 -21z m392 -10 c-7 -11 -14 -19 -16 -16 -7 7 7 37 17 37 6 0 5 -9 -1 -21z
m-640 -5 c0 -2 -7 -4 -15 -4 -8 0 -15 4 -15 10 0 5 7 7 15 4 8 -4 15 -8 15
-10z m38 4 c-1 -7 6 -26 16 -41 10 -15 16 -30 12 -34 -3 -3 -6 -1 -6 5 0 24
-17 11 -35 -25 -10 -21 -20 -33 -22 -26 -2 6 5 30 17 52 17 35 18 41 5 41 -13
0 -14 4 -5 20 12 22 22 27 18 8z m977 2 c3 -5 2 -10 -4 -10 -5 0 -13 5 -16 10
-3 6 -2 10 4 10 5 0 13 -4 16 -10z m3 -17 c12 -3 22 -11 22 -17 0 -23 -11 -25
-31 -5 -10 10 -31 19 -46 19 -22 0 -25 2 -13 10 8 5 22 7 30 4 8 -4 25 -9 38
-11z m-1888 -29 c0 -8 -4 -14 -9 -14 -6 0 -9 9 -8 19 1 22 17 18 17 -5z m1000
-15 c0 -8 -7 -6 -20 6 -11 10 -17 22 -14 26 6 11 34 -15 34 -32z m710 33 c0
-13 -12 -22 -22 -16 -10 6 -1 24 13 24 5 0 9 -4 9 -8z m-1770 -12 c0 -5 -2
-10 -4 -10 -3 0 -8 5 -11 10 -3 6 -1 10 4 10 6 0 11 -4 11 -10z m697 -12 c-3
-8 -6 -5 -6 6 -1 11 2 17 5 13 3 -3 4 -12 1 -19z m1226 -8 c-3 -11 -7 -20 -9
-20 -2 0 -4 9 -4 20 0 11 4 20 9 20 5 0 7 -9 4 -20z m-1248 0 c3 -6 -1 -7 -9
-4 -18 7 -21 14 -7 14 6 0 13 -4 16 -10z m765 -30 c0 -11 -7 -20 -15 -20 -8 0
-19 9 -25 20 -9 18 -8 20 15 20 18 0 25 -5 25 -20z m-543 -12 c-3 -8 -6 -5 -6
6 -1 11 2 17 5 13 3 -3 4 -12 1 -19z m183 11 c0 -5 15 -23 32 -40 18 -16 28
-29 23 -29 -5 0 0 -7 11 -15 18 -14 17 -15 -8 -4 -15 7 -26 17 -25 23 1 6 -6
10 -15 10 -10 -1 -16 2 -13 6 7 11 -21 32 -37 28 -13 -3 -18 3 -18 20 0 4 11
9 25 10 14 1 25 -3 25 -9z m1900 1 c0 -5 -5 -10 -11 -10 -5 0 -7 5 -4 10 3 6
8 10 11 10 2 0 4 -4 4 -10z m-1485 -20 c-3 -5 -10 -10 -16 -10 -5 0 -9 5 -9
10 0 6 7 10 16 10 8 0 12 -4 9 -10z m407 -16 c-12 -8 -20 -20 -17 -25 4 -5 2
-9 -4 -9 -5 0 -13 5 -16 11 -4 6 -14 8 -22 5 -8 -3 -11 -1 -8 4 3 6 17 10 30
10 13 0 27 5 30 10 3 6 11 10 18 10 6 0 1 -7 -11 -16z m85 -15 c2 -16 -1 -19
-9 -11 -5 5 -7 15 -4 21 10 15 12 14 13 -10z m838 11 c-3 -5 -21 -9 -38 -9
l-32 2 35 7 c19 4 36 8 38 9 2 0 0 -3 -3 -9z m-137 -22 c8 -10 -3 -13 -51 -15
-58 -2 -61 -2 -37 12 31 18 74 19 88 3z m235 5 c-7 -2 -19 -2 -25 0 -7 3 -2 5
12 5 14 0 19 -2 13 -5z m-2852 -13 c11 0 19 -7 19 -16 0 -16 -2 -16 -47 3 -26
11 -5 -48 27 -74 12 -10 12 -12 1 -13 -7 0 -11 -6 -8 -14 3 -8 -3 -22 -13 -31
-23 -21 -17 -40 27 -82 33 -33 42 -53 23 -53 -5 0 -10 7 -10 15 0 9 -9 15 -22
15 -13 0 -27 4 -33 8 -16 12 -45 72 -45 94 0 11 -9 31 -20 45 -27 34 -25 46 5
41 28 -6 32 4 10 26 -25 24 -18 36 17 29 24 -5 29 -3 23 7 -6 10 -4 12 9 7 10
-4 26 -7 37 -7z m859 0 c8 -5 11 -12 8 -16 -4 -3 -14 1 -23 10 -18 17 -9 21
15 6z m50 0 c12 -8 11 -10 -7 -10 -13 0 -23 5 -23 10 0 13 11 13 30 0z m680
-5 c-7 -9 -15 -13 -19 -10 -3 3 1 10 9 15 21 14 24 12 10 -5z m1153 8 c-7 -2
-21 -2 -30 0 -10 3 -4 5 12 5 17 0 24 -2 18 -5z m-2883 -66 c0 -5 -4 -5 -10
-2 -5 3 -10 14 -10 23 0 15 2 15 10 2 5 -8 10 -19 10 -23z m276 18 c15 -15 10
-40 -5 -30 -10 5 -22 45 -14 45 2 0 11 -7 19 -15z m1164 -26 c0 -5 -4 -9 -8
-9 -5 0 -9 7 -9 15 0 8 4 12 9 9 4 -3 8 -9 8 -15z m-340 7 c0 -2 -7 -7 -16
-10 -8 -3 -12 -2 -9 4 6 10 25 14 25 6z m1718 -20 c7 -4 22 -4 33 -1 15 5 19
4 15 -4 -4 -6 -25 -11 -47 -11 -22 0 -50 -7 -62 -15 -24 -15 -167 -49 -175
-40 -6 6 44 25 85 32 19 3 30 10 27 17 -3 7 12 16 38 22 50 11 69 11 86 0z
m-2888 0 c0 -3 -4 -8 -10 -11 -5 -3 -10 -1 -10 4 0 6 5 11 10 11 6 0 10 -2 10
-4z m1977 -22 c-3 -3 -12 -4 -19 -1 -8 3 -5 6 6 6 11 1 17 -2 13 -5z m-1950
-74 c18 -44 5 -78 -21 -52 -4 4 -12 8 -17 8 -5 1 -13 2 -19 3 -5 0 -10 5 -10
11 0 6 9 6 26 0 33 -13 34 -13 34 4 0 8 -5 16 -12 18 -7 3 -9 14 -3 34 7 24 9
25 12 9 2 -11 7 -27 10 -35z m2513 21 c0 -12 -20 -25 -27 -18 -7 7 6 27 18 27
5 0 9 -4 9 -9z m-1305 -19 c-3 -3 -11 0 -18 7 -9 10 -8 11 6 5 10 -3 15 -9 12
-12z m-971 -9 c4 -9 2 -21 -4 -27 -7 -7 -10 -6 -10 2 0 6 -7 9 -15 6 -18 -7
-20 7 -3 24 16 16 25 15 32 -5z m2249 -46 c4 3 9 -2 13 -11 3 -9 12 -16 18
-16 7 0 21 -7 32 -15 18 -14 16 -14 -16 -8 -19 3 -44 12 -55 20 -11 7 -27 13
-37 13 -10 0 -18 4 -18 9 0 13 32 19 46 9 6 -4 14 -5 17 -1z m-2414 -13 c5 -5
-26 -34 -37 -34 -13 0 -24 29 -16 41 5 8 41 4 53 -7z m2961 -13 c0 -5 -7 -11
-15 -15 -9 -3 -15 0 -15 9 0 8 7 15 15 15 8 0 15 -4 15 -9z m-2934 -35 c2 -14
0 -26 -5 -26 -18 0 -18 -47 1 -59 10 -6 16 -16 13 -21 -3 -6 3 -10 14 -10 12
0 21 -4 21 -10 0 -16 -70 -12 -76 5 -4 10 -15 12 -35 8 -19 -3 -29 -1 -29 6 0
6 13 14 29 17 27 6 29 8 20 32 -10 27 0 41 31 43 9 0 10 3 4 5 -7 3 -10 14 -7
25 7 24 12 20 19 -15z m644 19 c0 -8 -4 -15 -10 -15 -5 0 -10 7 -10 15 0 8 5
15 10 15 6 0 10 -7 10 -15z m-80 -5 c0 -5 -4 -10 -10 -10 -5 0 -10 5 -10 10 0
6 5 10 10 10 6 0 10 -4 10 -10z m1814 -6 c9 -23 8 -24 -14 -24 -19 0 -27 20
-13 33 11 11 20 8 27 -9z m501 6 c-3 -5 -16 -10 -28 -10 -18 0 -19 2 -7 10 20
13 43 13 35 0z m-2187 -36 c-10 -10 -28 6 -28 24 0 15 1 15 17 -1 9 -9 14 -19
11 -23z m1567 16 c4 -6 1 -9 -7 -8 -8 2 -14 -8 -16 -24 -2 -16 -8 -28 -13 -28
-15 0 -10 32 8 52 19 21 20 21 28 8z m382 -24 c11 -10 -8 -24 -43 -29 -20 -3
-44 -12 -53 -20 -9 -8 -47 -22 -86 -32 -38 -10 -76 -23 -82 -28 -9 -6 -13 -6
-13 1 0 5 15 17 33 26 46 23 67 41 67 58 0 9 8 18 18 21 9 2 26 8 36 13 16 6
18 4 14 -18 -5 -24 -3 -25 19 -15 26 12 30 25 8 33 -8 4 -15 10 -15 15 0 8 86
-14 97 -25z m-2836 -3 c10 -11 10 -14 2 -9 -8 4 -13 2 -13 -8 0 -8 -4 -18 -10
-21 -5 -3 -7 0 -4 8 3 8 1 18 -5 22 -6 3 -11 10 -11 16 0 15 27 10 41 -8z
m2519 -3 c0 -5 -2 -10 -4 -10 -3 0 -8 5 -11 10 -3 6 -1 10 4 10 6 0 11 -4 11
-10z m460 6 c0 -2 -16 -6 -35 -8 -19 -2 -35 0 -35 4 0 4 16 8 35 8 19 0 35 -2
35 -4z m-1679 -23 c13 -17 13 -17 -6 -3 -11 8 -22 16 -24 17 -2 2 0 3 6 3 6 0
17 -8 24 -17z m1296 -14 c1 -15 -5 -19 -33 -19 -29 0 -34 3 -34 23 0 20 4 23
33 19 24 -3 33 -9 34 -23z m-941 -17 c-15 -15 -16 -15 -16 5 0 12 6 23 13 26
19 6 21 -13 3 -31z m-929 6 c-3 -8 -6 -5 -6 6 -1 11 2 17 5 13 3 -3 4 -12 1
-19z m63 2 c0 -11 -7 -20 -15 -20 -15 0 -21 21 -8 33 12 13 23 7 23 -13z
m1005 -10 c3 -5 -1 -10 -10 -10 -9 0 -13 5 -10 10 3 6 8 10 10 10 2 0 7 -4 10
-10z m645 0 c0 -5 -2 -10 -4 -10 -3 0 -8 5 -11 10 -3 6 -1 10 4 10 6 0 11 -4
11 -10z m-2143 -12 c-2 -7 2 -21 11 -30 8 -10 11 -18 6 -18 -5 0 -15 9 -22 20
-7 11 -20 20 -30 20 -14 0 -15 2 -2 10 21 14 42 12 37 -2z m1590 -14 c-3 -3
-12 -4 -19 -1 -8 3 -5 6 6 6 11 1 17 -2 13 -5z m515 -26 c-6 -6 -16 -8 -22 -6
-9 3 -7 9 6 22 13 13 19 15 22 6 2 -6 0 -16 -6 -22z m81 12 c3 -11 1 -20 -4
-20 -5 0 -9 2 -9 4 0 2 -3 11 -6 20 -3 9 -2 16 4 16 5 0 12 -9 15 -20z m-917
-32 c-11 -15 -16 -18 -16 -7 0 16 21 42 28 34 2 -2 -3 -14 -12 -27z m205 -1
c-16 -16 -26 0 -10 19 9 11 15 12 17 4 2 -6 -1 -17 -7 -23z m-122 14 c18 -11
7 -41 -15 -41 -11 0 -15 6 -11 20 3 10 0 21 -7 24 -6 2 -5 5 4 5 8 0 21 -3 29
-8z m1271 -1 c0 -5 -4 -10 -9 -10 -6 0 -13 5 -16 10 -3 6 1 10 9 10 9 0 16 -4
16 -10z m-50 -34 c0 -8 -4 -17 -9 -20 -10 -7 -23 19 -14 28 11 11 23 6 23 -8z
m-121 -13 c-1 -10 -1 -21 0 -25 3 -20 -2 -23 -47 -23 -47 0 -50 -3 -36 -39 5
-13 3 -17 -6 -14 -8 2 -20 19 -28 37 -12 32 -12 33 7 28 12 -3 21 -1 21 4 0 5
12 12 27 15 15 4 34 13 41 21 18 18 24 16 21 -4z m-1434 -3 c-3 -5 -10 -10
-16 -10 -5 0 -9 5 -9 10 0 6 7 10 16 10 8 0 12 -4 9 -10z m1514 -11 c-22 -13
-31 -11 -17 5 7 8 17 12 22 9 4 -3 2 -9 -5 -14z m-749 -3 c0 -8 -4 -18 -10
-21 -5 -3 -10 3 -10 14 0 12 5 21 10 21 6 0 10 -6 10 -14z m825 4 c-3 -5 -13
-10 -21 -10 -8 0 -12 5 -9 10 3 6 13 10 21 10 8 0 12 -4 9 -10z m-2892 -30
c-8 -30 -18 -32 -19 -4 -1 14 4 24 11 24 8 0 11 -8 8 -20z m67 11 c0 -5 14
-14 30 -20 17 -5 30 -14 30 -19 0 -16 -38 -44 -52 -39 -9 4 -8 6 4 6 11 1 15
7 11 21 -5 20 -7 20 -24 4 -27 -24 -130 -57 -141 -46 -6 6 9 14 37 21 48 12
101 54 90 71 -3 6 -1 10 4 10 6 0 11 -4 11 -9z m1070 -1 c0 -5 -4 -10 -10 -10
-5 0 -10 5 -10 10 0 6 5 10 10 10 6 0 10 -4 10 -10z m-1240 -21 c0 -9 -7 -20
-16 -23 -23 -9 -31 -7 -15 3 19 12 5 30 -18 24 -10 -3 -22 0 -26 7 -5 7 6 10
34 9 31 -2 41 -7 41 -20z m2480 -4 c5 3 10 0 10 -8 0 -17 -60 -30 -74 -16 -15
13 26 40 41 27 7 -5 17 -7 23 -3z m200 -36 c-5 -17 -6 -37 -3 -45 5 -15 -26
-20 -92 -15 -37 3 -48 13 -39 35 4 11 16 16 40 14 25 -1 39 4 56 23 30 34 49
28 38 -12z m152 -1 c-7 -7 -12 -8 -12 -2 0 14 12 26 19 19 2 -3 -1 -11 -7 -17z
m71 5 c10 -9 -13 -33 -32 -33 -14 1 -14 2 1 14 10 7 15 16 11 19 -3 4 -2 7 4
7 5 0 13 -3 16 -7z m-2633 -7 c0 -2 -11 -6 -25 -8 -14 -3 -25 -1 -25 3 0 5 11
9 25 9 14 0 25 -2 25 -4z m1860 -15 c0 -6 -4 -13 -10 -16 -5 -3 -10 1 -10 9 0
9 5 16 10 16 6 0 10 -4 10 -9z m-1776 -30 c-4 -3 -9 0 -11 7 -3 6 -10 9 -15 6
-7 -4 -8 -2 -4 5 6 9 11 9 22 0 8 -6 12 -15 8 -18z m1366 19 c0 -5 -4 -10 -9
-10 -6 0 -13 5 -16 10 -3 6 1 10 9 10 9 0 16 -4 16 -10z m1048 -3 c23 3 22 1
-8 -11 -53 -22 -67 -20 -44 5 10 11 20 16 22 11 1 -5 15 -7 30 -5z m-1388 -17
c0 -5 -4 -10 -10 -10 -5 0 -10 5 -10 10 0 6 5 10 10 10 6 0 10 -4 10 -10z
m1144 -5 c-4 -8 -8 -15 -10 -15 -2 0 -4 7 -4 15 0 8 4 15 10 15 5 0 7 -7 4
-15z m-2350 -3 c3 -5 19 -9 35 -10 16 0 42 -8 58 -17 18 -10 21 -14 8 -11 -11
2 -58 8 -105 12 -73 7 -80 9 -50 15 31 7 29 8 -12 5 -26 -2 -45 0 -42 5 7 11
101 12 108 1z m2619 -7 c8 -8 17 -11 21 -8 3 4 6 -1 6 -9 0 -20 -17 -33 -52
-42 -25 -6 -28 -4 -28 20 0 20 4 25 16 20 12 -4 14 -1 9 14 -7 23 7 26 28 5z
m-2893 -9 c0 -2 -9 -6 -20 -9 -11 -3 -18 -1 -14 4 5 9 34 13 34 5z m1410 -6
c0 -5 -5 -10 -11 -10 -5 0 -7 5 -4 10 3 6 8 10 11 10 2 0 4 -4 4 -10z m60 -5
c0 -8 -4 -15 -10 -15 -5 0 -10 7 -10 15 0 8 5 15 10 15 6 0 10 -7 10 -15z
m1055 5 c3 -6 -1 -7 -9 -4 -18 7 -21 14 -7 14 6 0 13 -4 16 -10z m-1126 -51
c-16 -10 -23 -4 -14 10 3 6 11 8 17 5 6 -4 5 -9 -3 -15z m1390 -10 c-9 -6 -10
-9 -2 -9 6 0 15 5 18 10 3 6 12 10 18 10 7 0 1 -9 -13 -20 -15 -13 -36 -19
-52 -17 -15 2 -25 0 -23 -4 3 -4 -4 -9 -16 -12 -16 -4 -18 -3 -8 9 9 11 8 14
-4 14 -8 0 -17 -7 -20 -14 -10 -26 -167 -62 -167 -38 0 11 61 32 96 32 33 0
48 8 56 30 4 10 20 16 47 17 22 1 49 6 58 12 22 12 33 -7 12 -20z m-2623 14
c-11 -11 -77 -13 -71 -2 4 5 22 9 42 9 20 0 33 -3 29 -7z m1384 3 c0 -3 -4 -8
-10 -11 -5 -3 -10 -1 -10 4 0 6 5 11 10 11 6 0 10 -2 10 -4z m-1580 -15 c0 -9
-23 -21 -40 -21 -4 0 -10 7 -14 15 -4 11 2 15 24 15 17 0 30 -4 30 -9z m248
-12 c7 -2 0 -9 -16 -15 -27 -10 -28 -10 -24 13 3 16 8 21 16 15 6 -5 17 -11
24 -13z m2212 11 c0 -5 -5 -10 -11 -10 -5 0 -7 5 -4 10 3 6 8 10 11 10 2 0 4
-4 4 -10z m-1042 -22 c-5 -15 -23 -11 -26 6 -2 11 2 14 13 10 9 -4 14 -11 13
-16z m412 -18 c0 -5 -2 -10 -4 -10 -3 0 -8 5 -11 10 -3 6 -1 10 4 10 6 0 11
-4 11 -10z m670 0 c0 -5 -2 -10 -4 -10 -3 0 -8 5 -11 10 -3 6 -1 10 4 10 6 0
11 -4 11 -10z m-2610 -7 c0 -8 -53 -44 -75 -51 -5 -2 6 10 25 27 35 30 50 38
50 24z m390 -23 c0 -5 -6 -10 -14 -10 -8 0 -18 5 -21 10 -3 6 3 10 14 10 12 0
21 -4 21 -10z m75 -15 l30 -15 -30 5 c-16 3 -36 6 -42 7 -7 1 -13 5 -13 10 0
12 21 9 55 -7z m2002 9 c-3 -3 -12 -4 -19 -1 -8 3 -5 6 6 6 11 1 17 -2 13 -5z
m-2012 -44 c0 -9 -11 -16 -30 -18 l-30 -2 24 14 c18 10 20 15 10 19 -8 4 -6 6
6 4 11 -1 20 -9 20 -17z m-215 -5 c0 -1 -12 -2 -26 -2 -17 0 -22 2 -13 7 10 7
39 3 39 -5z m203 -46 c12 -12 15 -18 7 -14 -13 8 -13 7 -1 -8 9 -11 10 -17 2
-17 -6 0 -11 -7 -11 -15 0 -8 -7 -15 -15 -15 -18 0 -20 -26 -2 -33 9 -4 9 -6
-1 -6 -8 -1 -16 8 -19 19 -6 22 -13 25 -31 10 -9 -7 -9 -7 -2 2 6 7 10 21 10
33 0 19 25 65 36 65 3 0 15 -10 27 -21z m137 -17 c-8 -3 -29 -21 -47 -41 -18
-20 -32 -31 -33 -25 0 6 7 17 15 24 8 7 15 17 15 22 0 18 25 35 44 30 15 -4
17 -7 6 -10z m2080 7 c0 -5 4 -8 9 -4 5 3 12 1 15 -4 10 -16 -14 -24 -29 -11
-17 14 -20 30 -5 30 6 0 10 -5 10 -11z m-2450 -49 c0 -11 -4 -20 -8 -20 -4 0
-8 9 -9 20 -1 11 2 20 8 20 5 0 9 -9 9 -20z m116 4 c-9 -8 -21 -12 -28 -8 -8
5 -6 10 8 15 31 12 37 10 20 -7z m329 6 c-3 -5 -10 -10 -16 -10 -5 0 -9 5 -9
10 0 6 7 10 16 10 8 0 12 -4 9 -10z m1945 0 c0 -4 -6 -11 -12 -13 -10 -4 -10
-8 1 -15 10 -7 10 -11 1 -17 -14 -9 -17 -6 -25 25 -5 21 -2 26 14 27 12 1 21
-2 21 -7z m-2543 -6 c-3 -3 -12 -4 -19 -1 -8 3 -5 6 6 6 11 1 17 -2 13 -5z
m2470 -24 c0 -29 -10 -39 -21 -22 -7 11 4 52 13 52 4 0 8 -13 8 -30z m-197 10
c0 -5 -4 -10 -10 -10 -5 0 -10 5 -10 10 0 6 5 10 10 10 6 0 10 -4 10 -10z
m-1730 -8 c0 -11 -41 -34 -48 -28 -3 4 3 13 14 21 21 16 34 19 34 7z m-92 -61
c3 -10 -2 -11 -18 -6 -18 6 -22 4 -17 -8 3 -9 -1 -21 -9 -28 -12 -10 -13 -9
-8 5 4 11 2 16 -6 14 -23 -5 -21 17 2 28 29 15 50 13 56 -5z m1798 -36 c-3 -9
-11 -13 -16 -10 -8 5 -7 11 1 21 14 18 24 11 15 -11z m614 7 c0 -20 -56 -92
-72 -92 -6 0 -5 7 3 16 7 9 12 28 11 43 -2 20 4 31 20 39 32 15 38 14 38 -6z
m-1440 -12 c0 -5 -5 -10 -11 -10 -5 0 -7 5 -4 10 3 6 8 10 11 10 2 0 4 -4 4
-10z m1020 -4 c0 -14 -21 -21 -85 -31 -86 -12 -114 -18 -152 -32 -40 -15 -69
-11 -58 7 11 18 72 42 120 46 28 2 68 8 90 13 62 13 85 13 85 -3z m202 -11
c48 3 97 4 108 0 27 -9 26 -46 -2 -72 -63 -57 -139 -69 -178 -28 -17 18 -34
25 -60 25 -43 0 -60 14 -60 51 0 32 19 39 70 26 19 -5 74 -6 122 -2z m-862
-15 c0 -5 -7 -10 -16 -10 -8 0 -12 5 -9 10 3 6 10 10 16 10 5 0 9 -4 9 -10z
m-102 -25 c-2 -6 -9 -9 -16 -9 -7 1 -11 -3 -9 -10 2 -6 -3 -16 -12 -23 -14
-10 -14 -15 -2 -35 7 -13 10 -20 6 -16 -4 4 -16 -3 -26 -15 -15 -18 -18 -19
-19 -5 0 9 5 18 11 20 7 2 7 12 1 29 -8 19 -6 30 6 46 24 29 69 43 60 18z
m312 -10 c0 -8 -2 -15 -4 -15 -2 0 -6 7 -10 15 -3 8 -1 15 4 15 6 0 10 -7 10
-15z m-239 -8 c0 -4 -3 -27 -7 -52 -7 -52 -24 -70 -24 -27 0 46 12 93 22 90 5
-2 9 -7 9 -11z m-86 -46 c-3 -6 -11 -8 -17 -5 -6 4 -5 9 3 15 16 10 23 4 14
-10z m-71 -6 c-4 -8 -8 -15 -10 -15 -2 0 -4 7 -4 15 0 8 4 15 10 15 5 0 7 -7
4 -15z m491 5 c3 -5 1 -10 -4 -10 -6 0 -11 5 -11 10 0 6 2 10 4 10 3 0 8 -4
11 -10z m-556 -41 c-12 -24 -29 -16 -22 10 3 12 11 17 19 14 10 -4 11 -10 3
-24z m570 -15 c2 -2 2 -7 -2 -10 -9 -9 -57 5 -57 16 0 9 47 4 59 -6z m-75 -15
c32 -25 34 -43 3 -35 -16 4 -26 -1 -35 -14 -14 -24 -32 -26 -32 -5 0 8 -7 15
-15 15 -13 0 -14 4 -4 23 23 42 44 47 83 16z m-759 -4 c30 -8 102 -15 159 -16
57 -1 109 -5 116 -9 9 -5 8 -19 -3 -56 l-14 -49 -117 -3 c-101 -2 -122 1 -156
18 -22 11 -40 24 -40 29 0 15 -33 23 -41 10 -4 -7 -12 -8 -20 -3 -20 12 -38
14 -44 4 -8 -12 -43 0 -49 17 -13 33 50 72 116 73 20 0 62 -7 93 -15z m655
-25 c12 -23 5 -44 -12 -34 -6 4 -14 0 -19 -7 -16 -26 -30 4 -17 34 15 32 33
35 48 7z m-74 -25 c7 -30 6 -32 -21 -37 -23 -4 -33 26 -15 47 18 22 29 18 36
-10z m-195 2 c16 -12 15 -14 -1 -35 -23 -28 -87 -28 -96 0 -3 11 -3 22 0 25 4
4 54 19 76 22 3 0 12 -5 21 -12z m55 -30 c-2 -17 -9 -33 -16 -35 -9 -3 -11 2
-7 19 4 13 7 32 7 42 0 10 4 15 10 12 5 -3 8 -20 6 -38z m69 1 c6 -22 4 -28
-9 -28 -21 0 -37 40 -23 58 13 16 23 6 32 -30z m611 -126 c-6 -5 -36 23 -36
34 0 4 9 -1 20 -11 11 -10 18 -20 16 -23z m-941 -32 c3 -5 -3 -10 -14 -10 -11
0 -23 5 -26 10 -3 6 3 10 14 10 11 0 23 -4 26 -10z m1431 -44 c10 -8 16 -18
12 -22 -5 -4 -16 0 -25 8 -10 9 -25 18 -33 21 -11 4 -9 6 6 6 11 1 29 -5 40
-13z m-1816 -686 c0 -5 -7 -10 -16 -10 -8 0 -12 5 -9 10 3 6 10 10 16 10 5 0
9 -4 9 -10z"/>
<path d="M2315 5850 c-3 -5 -1 -10 4 -10 6 0 11 5 11 10 0 6 -2 10 -4 10 -3 0
-8 -4 -11 -10z"/>
<path d="M2635 5799 c7 -11 35 -12 35 -1 0 4 -9 8 -20 9 -11 1 -18 -2 -15 -8z"/>
<path d="M2680 5781 c0 -5 7 -15 17 -22 15 -13 15 -12 4 9 -12 23 -21 28 -21
13z"/>
<path d="M2835 5580 c3 -5 11 -10 16 -10 6 0 7 5 4 10 -3 6 -11 10 -16 10 -6
0 -7 -4 -4 -10z"/>
<path d="M1995 5410 c-3 -6 1 -7 9 -4 18 7 21 14 7 14 -6 0 -13 -4 -16 -10z"/>
<path d="M3690 3110 c0 -5 5 -10 11 -10 5 0 7 5 4 10 -3 6 -8 10 -11 10 -2 0
-4 -4 -4 -10z"/>
<path d="M670 1540 c0 -5 5 -10 11 -10 5 0 7 5 4 10 -3 6 -8 10 -11 10 -2 0
-4 -4 -4 -10z"/>
</g>
</svg>
