<?xml version="1.0" standalone="no"?>
<!DOCTYPE svg PUBLIC "-//W3C//DTD SVG 20010904//EN"
 "http://www.w3.org/TR/2001/REC-SVG-20010904/DTD/svg10.dtd">
<svg version="1.0" xmlns="http://www.w3.org/2000/svg"
 width="644.000000pt" height="504.000000pt" viewBox="0 0 644.000000 504.000000"
 preserveAspectRatio="xMidYMid meet">

<g transform="translate(0.000000,504.000000) scale(0.100000,-0.100000)"
fill="#000000" stroke="none">
<path d="M0 2660 l0 -2380 68 26 c37 15 114 44 172 65 58 21 114 43 125 49 56
27 145 58 145 50 0 -5 -14 -19 -31 -31 l-32 -22 29 -24 29 -23 -22 -15 c-13
-9 -20 -22 -17 -30 4 -9 0 -15 -10 -15 -10 0 -13 -6 -10 -15 4 -10 0 -15 -11
-15 -12 0 -16 -6 -12 -20 3 -11 1 -20 -4 -20 -5 0 -9 -5 -9 -11 0 -8 5 -7 15
1 25 21 28 4 6 -39 -16 -30 -25 -39 -38 -34 -10 4 -14 2 -10 -4 4 -6 -1 -10
-11 -9 -19 1 -24 -35 -9 -67 5 -11 4 -24 -3 -32 -7 -8 -9 -19 -5 -25 8 -13
-276 -14 -323 -1 -25 8 -32 7 -32 -5 0 -12 434 -14 3220 -14 l3220 0 0 2520 0
2520 -3220 0 -3220 0 0 -2380z m92 2007 c-2 -160 -6 -341 -11 -402 -8 -96 -9
-78 -9 140 0 281 8 568 16 560 3 -3 5 -137 4 -298z m212 297 c11 -4 13 -11 5
-31 -12 -31 -11 -33 3 -33 7 0 26 14 44 31 21 21 43 31 65 32 l34 2 3 -57 c2
-32 7 -58 13 -58 5 0 3 -10 -5 -22 -8 -13 -18 -47 -22 -76 -4 -31 -10 -48 -14
-41 -9 13 -74 -31 -90 -62 -6 -10 -10 -60 -10 -111 0 -51 -5 -109 -11 -128 -6
-19 -17 -80 -25 -135 -8 -55 -19 -120 -23 -145 l-8 -45 -3 40 c-1 22 -1 67 0
99 1 39 -3 62 -11 67 -11 6 -11 15 -1 42 7 18 12 80 12 138 l0 104 -24 -30
c-16 -20 -26 -49 -31 -88 -3 -33 -9 -57 -12 -54 -7 8 -6 99 4 222 5 61 8 112
5 115 -2 3 -12 -5 -22 -17 l-18 -22 -5 25 c-3 19 3 35 24 59 19 21 29 44 29
63 0 17 5 34 11 38 8 5 10 -1 5 -19 -8 -32 7 -43 29 -20 11 11 15 27 12 47 -4
28 6 76 17 76 2 0 11 -3 20 -6z m1338 -18 c-3 -15 1 -18 17 -13 14 3 25 -1 31
-13 14 -26 13 -40 -3 -40 -17 0 -67 -23 -67 -31 0 -4 7 -9 15 -13 22 -8 18
-36 -5 -36 -11 0 -20 3 -20 8 0 4 -22 5 -50 4 -29 -2 -47 -8 -44 -14 3 -5 -2
-16 -12 -23 -25 -19 -34 -18 -34 0 0 19 -40 16 -65 -5 -15 -12 -15 -14 -1 -22
24 -13 19 -28 -9 -28 -25 0 -29 8 -38 70 l-3 25 -11 -26 c-7 -15 -18 -29 -26
-32 -7 -3 -26 -31 -41 -64 -15 -32 -31 -66 -37 -75 -5 -10 -9 -27 -9 -38 0
-11 -4 -20 -10 -20 -5 0 -21 -25 -35 -55 -25 -56 -43 -76 -25 -29 13 33 13 34
-4 28 -8 -3 -17 -1 -20 4 -3 6 -23 6 -48 2 -24 -5 -92 -16 -153 -25 -60 -9
-121 -24 -135 -32 -14 -9 -61 -52 -104 -97 -43 -45 -76 -73 -72 -63 3 11 9 30
12 43 3 13 10 21 15 18 13 -8 11 10 -3 24 -8 8 -6 16 11 29 35 29 56 213 31
274 -10 23 -10 33 -1 42 16 16 14 37 -6 59 -13 14 -13 18 -2 19 8 0 3 5 -10
10 -18 7 -22 14 -17 34 4 17 2 25 -6 26 -7 0 -3 4 10 9 27 12 28 27 2 35 -31
10 -25 43 8 48 15 2 241 4 502 3 460 -1 475 -2 472 -20z m548 20 c0 -27 -23
-54 -52 -61 l-33 -7 35 -8 c19 -5 38 -6 42 -4 16 10 29 -7 17 -22 -9 -11 -8
-14 5 -14 13 0 46 -46 46 -65 0 -10 -35 -4 -53 9 -18 14 -18 14 0 19 13 3 11
5 -7 6 -15 1 -32 -7 -40 -19 -8 -11 -22 -20 -30 -20 -9 0 -25 -6 -36 -14 -18
-13 -18 -15 -2 -21 15 -6 16 -9 3 -22 -8 -8 -15 -21 -15 -29 0 -17 -12 -18
-28 -2 -8 8 -15 8 -27 -2 -13 -11 -15 -9 -15 11 0 13 -5 31 -10 39 -8 12 -10
9 -10 -12 0 -20 -4 -26 -15 -22 -8 4 -12 11 -8 17 3 6 1 7 -6 3 -9 -6 -9 -11
1 -24 9 -11 10 -16 2 -19 -7 -2 -9 -13 -6 -25 3 -15 1 -19 -9 -16 -19 6 -22
143 -3 182 16 33 10 49 -14 42 -10 -3 -23 -2 -30 3 -10 6 -10 10 2 20 8 7 19
10 24 7 6 -3 13 10 16 29 8 43 26 46 26 5 0 -26 3 -30 23 -26 33 6 57 17 57
26 0 4 -8 11 -17 16 -15 6 -12 8 12 14 37 8 155 12 155 6z m-1640 -14 c0 -11
-22 -32 -32 -32 -5 0 -4 9 2 20 11 20 30 28 30 12z m70 4 c0 -3 -4 -8 -10 -11
-5 -3 -10 -1 -10 4 0 6 5 11 10 11 6 0 10 -2 10 -4z m1118 -8 c14 -14 15 -47
2 -68 -7 -12 -10 -11 -16 5 -5 11 -14 26 -21 33 -7 7 -13 20 -13 28 0 17 31
19 48 2z m52 8 c0 -3 -4 -8 -10 -11 -5 -3 -10 -1 -10 4 0 6 5 11 10 11 6 0 10
-2 10 -4z m207 -22 c-9 -9 -28 6 -21 18 4 6 10 6 17 -1 6 -6 8 -13 4 -17z
m343 18 c0 -13 -41 -33 -58 -28 -11 4 -22 -2 -30 -14 -10 -17 -10 -20 3 -20 8
0 15 -4 15 -10 0 -5 -7 -10 -15 -10 -17 0 -50 64 -40 79 7 12 125 15 125 3z
m-449 -107 c0 -5 -14 -13 -31 -16 -33 -7 -40 4 -12 20 20 12 43 10 43 -4z
m-116 -6 c10 -15 4 -17 -37 -11 -21 2 -35 8 -32 13 7 13 61 11 69 -2z m-1115
-69 c0 -5 -5 -10 -11 -10 -5 0 -7 5 -4 10 3 6 8 10 11 10 2 0 4 -4 4 -10z
m830 -35 c0 -8 -4 -15 -10 -15 -5 0 -10 7 -10 15 0 8 5 15 10 15 6 0 10 -7 10
-15z m590 -105 c0 -5 -2 -10 -4 -10 -3 0 -8 5 -11 10 -3 6 -1 10 4 10 6 0 11
-4 11 -10z m-660 -65 c-12 -15 -30 -12 -30 6 0 5 10 9 21 9 18 0 19 -2 9 -15z
m110 -24 c0 -11 -31 -24 -39 -16 -3 3 1 10 9 15 19 12 30 12 30 1z m-1360 -61
c0 -5 -5 -10 -11 -10 -5 0 -7 5 -4 10 3 6 8 10 11 10 2 0 4 -4 4 -10z m506
-313 c4 -18 7 -39 6 -47 0 -8 6 -35 14 -59 8 -24 12 -52 9 -62 -3 -10 -1 -28
5 -39 12 -23 -4 -55 -22 -44 -5 3 -15 0 -23 -6 -12 -10 -18 -10 -30 0 -8 6
-22 9 -33 6 -18 -6 -18 -3 -6 71 8 52 17 81 30 90 16 12 16 13 1 13 -23 0 -21
13 3 35 22 20 26 55 9 72 -9 9 -7 11 8 7 13 -4 24 -18 29 -37z m-455 -130
c-13 -13 -26 -3 -16 12 3 6 11 8 17 5 6 -4 6 -10 -1 -17z m51 -26 c0 -23 -2
-45 -6 -48 -3 -4 -6 18 -6 47 0 29 3 51 6 48 3 -3 5 -25 6 -47z m1673 -36 c19
0 55 -27 55 -41 0 -4 -7 -16 -17 -26 -15 -17 -15 -18 3 -18 10 0 15 -4 9 -8
-11 -8 -45 -66 -45 -76 0 -4 8 -6 18 -4 12 2 18 -5 20 -22 3 -24 3 -24 -11 -6
-14 18 -15 17 -19 -17 -3 -30 -1 -37 13 -37 9 0 19 -7 23 -15 5 -15 -8 -20
-50 -16 -14 1 -23 -6 -27 -18 -4 -17 -13 -19 -73 -17 -38 1 -79 -3 -91 -9 -21
-9 -63 -87 -63 -116 0 -9 -3 -10 -11 -2 -8 8 -8 17 0 31 6 11 11 32 11 45 0
14 7 30 15 37 8 7 15 19 15 26 0 29 66 161 107 217 24 31 43 60 43 63 0 11 45
42 50 35 3 -4 14 -7 25 -6z m-1177 -83 c3 -16 -2 -22 -16 -22 -19 0 -36 32
-24 45 13 12 37 -1 40 -23z m1294 -27 c4 -17 1 -25 -8 -25 -8 0 -14 11 -14 25
0 14 4 25 9 25 5 0 11 -11 13 -25z m-1420 -44 c-4 -18 25 -55 33 -42 13 22 35
10 99 -54 36 -36 66 -61 66 -55 0 5 5 10 10 10 6 0 10 -11 10 -25 0 -16 6 -25
15 -25 9 0 18 -7 21 -15 4 -8 11 -15 18 -15 17 0 33 -42 26 -70 -4 -15 -13
-24 -23 -24 -9 1 -17 -3 -17 -10 0 -6 -12 -19 -26 -29 l-25 -19 7 26 c5 20 2
26 -10 26 -9 0 -19 -7 -22 -15 -4 -8 -10 -13 -14 -10 -4 3 -13 -8 -20 -25 -17
-42 -54 -64 -79 -48 -29 18 -38 2 -17 -32 21 -36 15 -49 -19 -42 -25 4 -25 3
-19 -37 4 -25 3 -41 -4 -41 -13 0 -25 27 -29 65 -3 34 -6 59 -21 160 -8 59 -9
138 -3 332 1 28 4 32 24 29 12 -2 21 -9 19 -15z m1438 -41 c0 -5 -5 -10 -11
-10 -5 0 -7 5 -4 10 3 6 8 10 11 10 2 0 4 -4 4 -10z m-66 -61 c-8 -13 -24 -1
-24 18 0 13 3 13 15 3 8 -7 12 -16 9 -21z m-1714 -25 c0 -13 3 -14 15 -4 15
12 16 11 93 -60 15 -13 32 -24 37 -22 6 1 2 -4 -7 -11 -10 -8 -18 -20 -18 -28
0 -12 -2 -11 -9 1 -6 8 -7 18 -5 22 3 4 -2 5 -10 2 -10 -4 -16 -1 -16 7 -1 9
-6 7 -16 -6 -15 -20 -16 -20 -29 -1 -8 10 -16 24 -18 29 -6 18 -73 -31 -91
-66 -11 -24 -16 -27 -16 -12 0 11 12 45 27 75 14 30 27 60 28 65 1 6 3 13 3
18 4 14 32 7 32 -9z m104 -149 c10 -38 -3 -50 -25 -26 -24 26 -24 51 0 51 12
0 21 -9 25 -25z m786 -59 c0 -5 -7 -1 -15 10 -8 10 -14 24 -14 29 0 6 6 1 14
-9 8 -11 15 -24 15 -30z m-983 -13 c-3 -10 -5 -2 -5 17 0 19 2 27 5 18 2 -10
2 -26 0 -35z m2 -70 c0 -29 -2 -33 -8 -18 -7 18 -4 55 5 55 2 0 4 -17 3 -37z
m229 -50 c42 -6 54 -16 29 -26 -7 -3 -25 -3 -40 0 -21 4 -29 0 -38 -21 -7 -14
-16 -26 -21 -26 -4 0 -8 -13 -8 -29 0 -17 -4 -33 -10 -36 -15 -9 2 -175 18
-175 4 1 18 7 32 15 32 18 50 19 50 1 0 -14 8 -18 63 -30 23 -6 29 -2 38 21 7
19 7 34 0 51 -6 12 -11 33 -10 45 1 14 6 5 15 -23 8 -25 17 -52 21 -60 7 -17
9 -24 18 -78 6 -39 6 -40 -30 -46 -38 -7 -75 0 -75 14 0 12 -42 0 -63 -18 -16
-14 -19 -14 -31 3 -7 10 -25 19 -40 20 -24 1 -26 -2 -21 -25 6 -22 46 -70 60
-70 3 0 5 7 5 15 0 8 5 15 11 15 8 0 10 -15 7 -45 -4 -28 -1 -46 6 -48 6 -2 8
-7 4 -11 -14 -16 -97 54 -98 82 0 6 -4 12 -9 12 -10 0 -46 103 -57 163 -3 20
-10 40 -15 43 -12 7 -12 34 0 34 5 0 14 -13 20 -30 20 -59 38 -34 40 60 2 69
26 187 42 207 7 8 19 11 28 7 9 -3 35 -9 59 -11z m942 -34 c0 -5 -7 -9 -15 -9
-15 0 -20 12 -9 23 8 8 24 -1 24 -14z m-640 -14 c0 -14 -4 -25 -9 -25 -5 0 -8
11 -8 25 0 14 3 25 8 25 5 0 9 -11 9 -25z m565 -5 c-3 -5 -10 -10 -16 -10 -5
0 -9 5 -9 10 0 6 7 10 16 10 8 0 12 -4 9 -10z m-118 -197 c-5 -49 14 -65 32
-27 11 25 26 31 36 15 9 -16 -31 -76 -49 -73 -24 4 -19 -15 6 -21 21 -6 58 16
56 32 -2 19 3 31 11 26 6 -3 14 3 20 12 9 16 10 16 11 -4 0 -13 -6 -23 -14
-23 -9 0 -12 -8 -8 -25 2 -15 0 -25 -7 -25 -6 0 -11 -4 -11 -10 0 -5 7 -7 15
-4 24 9 18 -24 -6 -37 -12 -6 -32 -12 -46 -14 -32 -3 -35 -8 -37 -54 0 -22 -4
-37 -8 -35 -5 3 -8 12 -8 20 0 21 -17 17 -34 -8 -16 -22 -16 -22 -16 -2 0 12
5 36 12 54 9 26 9 35 0 38 -7 2 -10 13 -7 25 5 20 15 144 16 207 1 14 6 34 12
45 10 18 12 15 19 -25 5 -25 7 -64 5 -87z m128 77 c-3 -5 -10 -10 -16 -10 -5
0 -9 5 -9 10 0 6 7 10 16 10 8 0 12 -4 9 -10z m313 -8 c2 -7 -6 -12 -17 -12
-21 0 -27 11 -14 24 9 9 26 2 31 -12z m-1381 -29 c-3 -10 -5 -4 -5 12 0 17 2
24 5 18 2 -7 2 -21 0 -30z m703 3 c0 -3 -4 -8 -10 -11 -5 -3 -10 -1 -10 4 0 6
5 11 10 11 6 0 10 -2 10 -4z m750 -76 c0 -5 -5 -10 -11 -10 -5 0 -7 5 -4 10 3
6 8 10 11 10 2 0 4 -4 4 -10z m-620 -35 c0 -14 -4 -25 -10 -25 -11 0 -14 33
-3 43 11 11 13 8 13 -18z m418 8 c-4 -22 -22 -20 -26 1 -2 10 3 16 13 16 10 0
15 -7 13 -17z m52 -38 c0 -2 -10 -13 -22 -24 -15 -14 -29 -19 -47 -15 -20 4
-23 3 -11 -5 11 -8 12 -11 2 -11 -8 0 -35 -23 -61 -51 -37 -39 -49 -48 -54
-36 -4 11 -2 14 9 10 12 -4 15 0 12 15 -3 19 20 56 62 101 13 14 110 28 110
16z m-190 -95 c0 -5 -5 -10 -11 -10 -5 0 -7 5 -4 10 3 6 8 10 11 10 2 0 4 -4
4 -10z m-267 -24 c6 -15 -1 -26 -15 -26 -4 0 -8 9 -8 20 0 23 15 27 23 6z
m231 -71 c-6 -16 -24 -21 -24 -7 0 11 11 22 21 22 5 0 6 -7 3 -15z m-728 -39
c6 -17 -12 -56 -26 -56 -11 0 -14 53 -3 63 11 11 23 8 29 -7z m744 -12 c0 -9
-7 -14 -17 -12 -25 5 -28 28 -4 28 12 0 21 -6 21 -16z m-533 -36 c-3 -8 -6 -5
-6 6 -1 11 2 17 5 13 3 -3 4 -12 1 -19z m248 3 c3 -5 1 -12 -5 -16 -5 -3 -10
1 -10 9 0 18 6 21 15 7z m45 -1 c0 -5 -5 -10 -11 -10 -5 0 -7 5 -4 10 3 6 8
10 11 10 2 0 4 -4 4 -10z m-491 -67 c2 -21 -13 -14 -25 11 -9 18 -9 27 0 36 8
8 13 5 18 -12 3 -13 6 -29 7 -35z m271 47 c0 -5 -4 -10 -10 -10 -5 0 -10 5
-10 10 0 6 5 10 10 10 6 0 10 -4 10 -10z m280 -35 c0 -8 -4 -15 -10 -15 -5 0
-10 7 -10 15 0 8 5 15 10 15 6 0 10 -7 10 -15z m-643 -21 c8 -22 -8 -46 -34
-50 -26 -4 -41 30 -23 51 17 20 49 19 57 -1z m733 -7 c0 -14 -19 -37 -31 -37
-4 0 -10 7 -13 16 -3 8 -2 13 3 10 5 -3 11 1 15 9 7 18 26 20 26 2z m-94 -24
c-10 -10 -19 5 -10 18 6 11 8 11 12 0 2 -7 1 -15 -2 -18z m2204 13 c0 -16 -18
-31 -27 -22 -8 8 5 36 17 36 5 0 10 -6 10 -14z m-1660 -23 c0 -22 -2 -25 -10
-13 -13 20 -13 40 0 40 6 0 10 -12 10 -27z m-570 -13 c0 -5 -5 -10 -11 -10 -5
0 -7 5 -4 10 3 6 8 10 11 10 2 0 4 -4 4 -10z m133 -19 c5 -22 0 -31 -18 -31
-8 0 -10 10 -7 25 5 30 18 33 25 6z m-695 -13 c-4 -29 -38 -38 -38 -10 0 22 8
32 27 32 9 0 13 -8 11 -22z m607 2 c7 -21 0 -40 -16 -40 -5 0 -9 14 -9 30 0
34 15 40 25 10z m30 -19 c3 -5 1 -12 -5 -16 -5 -3 -10 1 -10 9 0 18 6 21 15 7z
m-748 -53 c-2 -13 -4 -5 -4 17 -1 22 1 32 4 23 2 -10 2 -28 0 -40z m670 17
c-4 -8 -2 -17 3 -20 13 -8 13 -45 0 -45 -5 0 -10 11 -10 24 0 14 -5 28 -10 31
-12 7 -4 25 12 25 5 0 8 -7 5 -15z m-17 -64 c0 -6 -4 -13 -10 -16 -5 -3 -10 1
-10 9 0 9 5 16 10 16 6 0 10 -4 10 -9z m10 -57 c0 -8 -4 -12 -10 -9 -5 3 -10
10 -10 16 0 5 5 9 10 9 6 0 10 -7 10 -16z m-270 -308 c0 -3 -4 -8 -10 -11 -5
-3 -10 -1 -10 4 0 6 5 11 10 11 6 0 10 -2 10 -4z m130 -63 c8 -16 21 -36 29
-46 16 -19 14 -24 -14 -29 -13 -2 -19 2 -17 10 1 8 -7 16 -18 19 -23 6 -26 23
-7 42 10 11 9 13 -5 8 -20 -7 -25 9 -5 16 21 9 23 8 37 -20z m-553 -75 c-3 -8
-6 -5 -6 6 -1 11 2 17 5 13 3 -3 4 -12 1 -19z m0 -60 c-3 -7 -5 -2 -5 12 0 14
2 19 5 13 2 -7 2 -19 0 -25z m506 22 c-13 -5 -23 -14 -23 -20 0 -6 -4 -8 -10
-5 -15 10 -12 23 8 28 31 8 48 6 25 -3z m27 -19 c0 -6 -4 -13 -10 -16 -5 -3
-10 1 -10 9 0 9 5 16 10 16 6 0 10 -4 10 -9z m-543 -103 c-2 -13 -4 -5 -4 17
-1 22 1 32 4 23 2 -10 2 -28 0 -40z m2900 10 c-3 -13 -9 -80 -13 -151 -4 -70
-11 -130 -17 -134 -11 -7 -2 261 9 291 9 25 27 19 21 -6z m-2434 -18 c3 -13 0
-20 -9 -20 -8 0 -14 9 -14 20 0 11 4 20 9 20 5 0 11 -9 14 -20z m82 -109 c-3
-6 -11 -8 -17 -5 -6 4 -5 9 3 15 16 10 23 4 14 -10z m-35 -130 c0 -6 -4 -13
-10 -16 -5 -3 -10 1 -10 9 0 9 5 16 10 16 6 0 10 -4 10 -9z m62 -103 c2 -13 9
-22 16 -20 14 3 16 -27 2 -48 -9 -13 -13 -12 -30 9 -27 32 -26 81 1 81 4 0 9
-10 11 -22z m-12 -88 c0 -11 7 -23 15 -26 8 -4 15 -15 15 -25 0 -10 5 -19 10
-19 6 0 15 -11 20 -25 10 -27 34 -33 44 -12 5 10 7 10 12 0 3 -7 14 -13 25
-13 11 0 22 -7 25 -15 4 -8 17 -15 30 -15 13 0 24 -4 24 -10 0 -5 5 -10 11
-10 6 0 41 -13 79 -30 79 -35 80 -35 80 -15 0 8 7 15 15 15 18 0 20 -20 3 -21
-7 -1 10 -9 37 -18 28 -10 57 -20 65 -23 8 -3 67 -22 130 -43 118 -39 196 -73
187 -81 -7 -7 -122 -8 -133 -2 -19 12 -103 21 -186 20 -86 -1 -128 -14 -128
-39 0 -7 -6 -13 -14 -13 -24 0 -67 -41 -87 -86 -21 -44 -19 -64 7 -64 9 0 14
-10 14 -27 0 -16 4 -23 8 -18 10 15 90 65 102 65 6 0 20 15 30 33 41 68 192
107 316 81 37 -7 69 -16 72 -19 3 -3 8 -24 11 -48 l6 -42 83 -2 c159 -3 174
-33 82 -168 -47 -68 -166 -313 -229 -470 l-61 -150 -177 0 -177 0 -63 120
c-34 66 -77 156 -94 200 -18 44 -45 108 -60 143 -16 34 -29 64 -29 67 0 2 -13
26 -28 52 -16 26 -34 64 -40 83 -7 19 -27 49 -44 67 -22 23 -29 36 -22 43 7 7
5 29 -9 68 -11 33 -20 86 -20 125 -1 69 -4 76 -25 55 -21 -21 -14 17 9 46 16
21 20 35 15 64 -18 107 -17 156 3 190 23 36 41 42 41 12z m2452 -57 c3 -16 7
-35 9 -43 2 -8 -3 -15 -11 -15 -11 0 -16 13 -18 48 -3 52 12 58 20 10z m-2270
-2 c9 -9 24 -22 33 -29 27 -22 16 -34 -12 -14 -32 23 -73 61 -73 67 0 8 35 -8
52 -24z m-92 4 c0 -8 -4 -15 -10 -15 -5 0 -10 7 -10 15 0 8 5 15 10 15 6 0 10
-7 10 -15z m2363 -104 c-4 -16 -8 -19 -14 -10 -4 7 -3 19 3 26 14 18 19 12 11
-16z m1 -76 c-4 -8 -10 -12 -15 -9 -11 6 -2 24 11 24 5 0 7 -7 4 -15z m586
-235 c8 -5 11 -10 6 -10 -5 0 -5 -6 0 -13 5 -7 2 -5 -7 5 -9 9 -19 14 -23 11
-3 -4 -6 -1 -6 5 0 14 10 15 30 2z m-3577 -329 c-9 -12 -25 20 -18 36 7 16 9
15 15 -7 4 -14 5 -27 3 -29z m1707 14 c0 -8 -9 -15 -20 -15 -20 0 -26 11 -13
23 12 13 33 7 33 -8z m60 -9 c0 -3 -4 -8 -10 -11 -5 -3 -10 -1 -10 4 0 6 5 11
10 11 6 0 10 -2 10 -4z m-22 -35 c8 -4 14 -12 14 -17 3 -25 11 -43 19 -38 13
8 10 -18 -4 -37 -7 -9 -22 -19 -34 -23 -20 -7 -23 -3 -29 43 -6 49 -16 62 -29
41 -8 -13 -25 -3 -25 15 0 19 64 31 88 16z m77 -171 c0 -18 -6 -26 -22 -28
-20 -3 -23 1 -23 28 0 27 3 31 23 28 16 -2 22 -10 22 -28z m-1077 -105 c-3 -3
-9 2 -12 12 -6 14 -5 15 5 6 7 -7 10 -15 7 -18z m-528 -185 c0 -5 -7 -10 -16
-10 -8 0 -12 5 -9 10 3 6 10 10 16 10 5 0 9 -4 9 -10z"/>
<path d="M358 4906 c-42 -39 -46 -47 -39 -72 4 -16 9 -56 10 -89 2 -33 5 -62
7 -64 12 -13 57 50 59 82 1 19 5 39 9 46 4 6 5 15 2 20 -3 5 -2 31 3 57 5 27
6 52 3 56 -4 4 -29 -12 -54 -36z"/>
<path d="M237 4803 c-12 -14 -17 -49 -21 -143 l-6 -125 26 31 c24 28 27 39 31
142 2 62 0 112 -5 112 -5 0 -16 -8 -25 -17z"/>
<path d="M1602 4930 c0 -14 2 -19 5 -12 2 6 2 18 0 25 -3 6 -5 1 -5 -13z"/>
<path d="M1540 4870 c0 -5 5 -10 10 -10 6 0 10 5 10 10 0 6 -4 10 -10 10 -5 0
-10 -4 -10 -10z"/>
<path d="M1200 4703 c0 -16 -2 -49 -3 -76 -2 -26 -3 -46 -2 -45 2 2 16 28 32
58 34 63 33 90 -3 90 -20 0 -24 -5 -24 -27z m40 13 c0 -3 -4 -8 -10 -11 -5 -3
-10 -1 -10 4 0 6 5 11 10 11 6 0 10 -2 10 -4z"/>
<path d="M1114 4561 c4 -5 1 -12 -4 -14 -6 -3 -5 -4 2 -3 15 3 23 26 8 26 -6
0 -9 -4 -6 -9z"/>
<path d="M2088 4943 c7 -3 16 -2 19 1 4 3 -2 6 -13 5 -11 0 -14 -3 -6 -6z"/>
<path d="M2020 4869 c0 -5 5 -7 10 -4 6 3 10 8 10 11 0 2 -4 4 -10 4 -5 0 -10
-5 -10 -11z"/>
<path d="M425 390 c-4 -6 3 -10 14 -10 25 0 27 6 6 13 -8 4 -17 2 -20 -3z"/>
<path d="M275 262 c-26 -19 -78 -83 -60 -73 30 16 49 34 63 59 13 24 13 26 -3
14z"/>
<path d="M380 180 c0 -5 7 -10 15 -10 8 0 15 5 15 10 0 6 -7 10 -15 10 -8 0
-15 -4 -15 -10z"/>
<path d="M107 105 c-15 -14 -24 -25 -19 -25 5 0 19 11 32 25 30 32 23 32 -13
0z"/>
</g>
</svg>
